<svg xmlns="http://www.w3.org/2000/svg" viewBox="0 0 220.62 124.29"><defs><style>.cls-1{fill:#fff;}</style></defs><g id="圖層_2" data-name="圖層 2"><g id="選單"><path class="cls-1" d="M178.94,64.2a1.18,1.18,0,0,1-.27-.56l0-1.5,0-1.49a1.13,1.13,0,0,1,.27-.56l2.9-3a.82.82,0,0,0,.17-.75l-1.15-3.54a.81.81,0,0,0-.58-.5l-4.08-.68a1.33,1.33,0,0,1-.55-.29l-.89-1.21L173.89,49a1.19,1.19,0,0,1-.1-.61l.61-4.09a.79.79,0,0,0-.3-.7l-3-2.19a.82.82,0,0,0-.77-.07l-3.7,1.85a1.11,1.11,0,0,1-.61.08l-1.43-.44-1.42-.48a1.21,1.21,0,0,1-.44-.43l-1.91-3.67a.82.82,0,0,0-.66-.4h-3.73a.79.79,0,0,0-.65.4l-1.91,3.67a1.24,1.24,0,0,1-.45.43l-1.41.48-1.43.44a1.15,1.15,0,0,1-.62-.08l-3.7-1.85a.79.79,0,0,0-.76.07l-3,2.19a.82.82,0,0,0-.3.7l.62,4.09a1.2,1.2,0,0,1-.11.61l-.87,1.22-.89,1.21a1.28,1.28,0,0,1-.55.29l-4.08.68a.78.78,0,0,0-.57.5l-1.16,3.54a.84.84,0,0,0,.17.75l2.91,3a1.22,1.22,0,0,1,.27.56v3a1.28,1.28,0,0,1-.27.56l-2.91,3a.82.82,0,0,0-.17.74l1.16,3.55a.8.8,0,0,0,.57.5l4.08.68a1.18,1.18,0,0,1,.55.29l.89,1.2.87,1.22a1.24,1.24,0,0,1,.11.61l-.62,4.1a.83.83,0,0,0,.3.7l3,2.19a.79.79,0,0,0,.76.07l3.7-1.85a1.25,1.25,0,0,1,.62-.09l1.43.45,1.41.48a1.1,1.1,0,0,1,.45.43l1.91,3.67a.78.78,0,0,0,.65.39h3.73a.81.81,0,0,0,.66-.39l1.91-3.67a1.07,1.07,0,0,1,.44-.43l1.42-.48,1.43-.45a1.21,1.21,0,0,1,.61.09l3.7,1.85a.82.82,0,0,0,.77-.07l3-2.19a.8.8,0,0,0,.3-.7l-.61-4.1a1.23,1.23,0,0,1,.1-.61l.87-1.22.89-1.2a1.23,1.23,0,0,1,.55-.29l4.08-.68a.83.83,0,0,0,.58-.5L182,67.89a.8.8,0,0,0-.17-.74Zm-20.65,6.87a8.93,8.93,0,1,1,8.92-8.93,8.93,8.93,0,0,1-8.92,8.93"/><path class="cls-1" d="M190.05,68.13a32.32,32.32,0,1,1-25.78-37.74,32.32,32.32,0,0,1,25.78,37.74M158.29,22.92a39.23,39.23,0,1,0,39.22,39.22,39.22,39.22,0,0,0-39.22-39.22"/><path class="cls-1" d="M94.09,68.13A32.32,32.32,0,1,1,68.31,30.39,32.32,32.32,0,0,1,94.09,68.13M62.33,22.92a39.23,39.23,0,1,0,39.22,39.22A39.22,39.22,0,0,0,62.33,22.92"/><path class="cls-1" d="M219.59,50a1.6,1.6,0,0,0-1.4-1.33l-7.6-.59A1.94,1.94,0,0,1,209,46.83c-.48-1.6-1-3.18-1.66-4.72a1.94,1.94,0,0,1,.43-2l5.57-5.22a1.6,1.6,0,0,0,.26-1.91l-4.16-6.83a1.59,1.59,0,0,0-1.82-.65l-7.2,2.56a1.94,1.94,0,0,1-2-.54q-1.62-1.89-3.42-3.63a1.93,1.93,0,0,1-.42-2l3-7a1.58,1.58,0,0,0-.54-1.85l-6.58-4.55a1.58,1.58,0,0,0-1.92.15L183,13.87a1.91,1.91,0,0,1-2,.31q-2.24-1-4.61-1.92a1.91,1.91,0,0,1-1.19-1.65L175.05,3A1.6,1.6,0,0,0,173.8,1.5L165.94,0a1.6,1.6,0,0,0-1.69.92L161.33,8a1.93,1.93,0,0,1-1.72,1.1c-1.67,0-3.34,0-5,.11a1.92,1.92,0,0,1-1.76-1l-3.24-6.91a1.6,1.6,0,0,0-1.74-.84L140.1,2.29a1.58,1.58,0,0,0-1.18,1.53l.21,7.63a1.93,1.93,0,0,1-1.12,1.7q-2.31,1-4.51,2.14a1.94,1.94,0,0,1-2-.22l-5.77-5a1.62,1.62,0,0,0-1.93-.06l-6.36,4.86a1.57,1.57,0,0,0-.45,1.87l3.28,6.88a1.9,1.9,0,0,1-.33,2c-1.14,1.21-2.22,2.48-3.25,3.79a1.91,1.91,0,0,1-1,.61,62.5,62.5,0,0,1,5.08,10.55,43.27,43.27,0,1,1,37.5,64.84l-4.28-.2a43.29,43.29,0,0,1-38.61-43h0a52.69,52.69,0,0,0-12.84-34.5l-.06-.16q-1.62-1.89-3.42-3.63a2,2,0,0,1-.42-2l3-7a1.58,1.58,0,0,0-.54-1.85L94.51,8.47a1.58,1.58,0,0,0-1.92.15l-5.53,5.25a1.91,1.91,0,0,1-2,.31c-1.49-.7-3-1.34-4.6-1.92a1.91,1.91,0,0,1-1.2-1.65L79.09,3A1.6,1.6,0,0,0,77.84,1.5L70,0a1.6,1.6,0,0,0-1.69.92L65.37,8a1.93,1.93,0,0,1-1.72,1.1c-1.67,0-3.34,0-5,.11a1.93,1.93,0,0,1-1.77-1L53.66,1.28A1.6,1.6,0,0,0,51.92.44L44.14,2.29A1.58,1.58,0,0,0,43,3.82l.21,7.63a1.93,1.93,0,0,1-1.12,1.7q-2.31,1-4.51,2.14a1.94,1.94,0,0,1-2-.22l-5.77-5A1.62,1.62,0,0,0,27.81,10l-6.36,4.86A1.57,1.57,0,0,0,21,16.74l3.28,6.88a1.91,1.91,0,0,1-.32,2c-1.15,1.21-2.23,2.48-3.26,3.79a1.94,1.94,0,0,1-1.94.63l-7.3-2.21a1.58,1.58,0,0,0-1.78.73l-3.84,7a1.59,1.59,0,0,0,.35,1.89l5.81,5a1.92,1.92,0,0,1,.52,2c-.55,1.56-1,3.15-1.43,4.78a1.91,1.91,0,0,1-1.51,1.36L2,51.5A1.58,1.58,0,0,0,.66,52.89l-.66,8a1.62,1.62,0,0,0,1.09,1.59l7.32,2.16a1.92,1.92,0,0,1,1.28,1.59c.13,1.67.35,3.32.63,5A1.91,1.91,0,0,1,9.49,73L3,77a1.58,1.58,0,0,0-.65,1.81L5,86.33a1.58,1.58,0,0,0,1.64,1l7.58-1a1.93,1.93,0,0,1,1.81.93q1.2,2.19,2.59,4.25a1.94,1.94,0,0,1,0,2l-4.37,6.27a1.58,1.58,0,0,0,.14,1.92l5.49,5.82a1.59,1.59,0,0,0,1.91.25l6.5-4a1.93,1.93,0,0,1,2,.11q2,1.52,4.1,2.85a1.92,1.92,0,0,1,.83,1.87l-1.44,7.48a1.6,1.6,0,0,0,.91,1.7l7.39,3.08a1.59,1.59,0,0,0,1.85-.55l4.32-6.3a1.94,1.94,0,0,1,1.91-.72c.8.2,4.08.81,4.9.92a1.94,1.94,0,0,1,1.51,1.37l1.73,7.44a1.61,1.61,0,0,0,1.53,1.19l8-.19a1.62,1.62,0,0,0,1.47-1.25l1.38-7.49a1.92,1.92,0,0,1,1.45-1.44q2.46-.47,4.86-1.16a1.94,1.94,0,0,1,1.94.63l4.6,6.09a1.61,1.61,0,0,0,1.87.46l7.24-3.43a1.59,1.59,0,0,0,.83-1.74l-1.79-7.43a1.92,1.92,0,0,1,.74-1.9c1.36-.94,2.69-2,4-3a1.94,1.94,0,0,1,2-.21l6.69,3.69a1.6,1.6,0,0,0,1.9-.34l3.25-3.78A62.09,62.09,0,0,1,99.83,83.7a43.27,43.27,0,1,1-37.5-64.83h.16v0c1.4,0,2.78.07,4.14.2l.92.1c.5.06,1,.11,1.49.19.88.14,1.75.3,2.62.49l.39.09a43.45,43.45,0,0,1,29.56,24h.16a43,43,0,0,1,4,18.17h0A52.89,52.89,0,0,0,126.24,104h0c1.32,1,2.69,2,4.1,2.84a1.92,1.92,0,0,1,.83,1.87l-1.44,7.48a1.6,1.6,0,0,0,.91,1.7l7.39,3.08a1.59,1.59,0,0,0,1.85-.55l4.32-6.3a1.94,1.94,0,0,1,1.91-.72c.8.2,4.08.81,4.89.92a2,2,0,0,1,1.52,1.37l1.73,7.44a1.61,1.61,0,0,0,1.53,1.19l8-.19a1.6,1.6,0,0,0,1.46-1.25l1.39-7.49a1.92,1.92,0,0,1,1.45-1.44q2.46-.47,4.86-1.16a2,2,0,0,1,1.94.63l4.6,6.09a1.6,1.6,0,0,0,1.87.46l7.24-3.43a1.59,1.59,0,0,0,.83-1.74l-1.79-7.43a1.92,1.92,0,0,1,.74-1.9q2-1.41,4-3a1.94,1.94,0,0,1,2-.21l6.69,3.69a1.6,1.6,0,0,0,1.9-.34l5.21-6.07a1.61,1.61,0,0,0,.06-1.93l-4.65-6a1.91,1.91,0,0,1-.1-2q1.29-2.13,2.4-4.38a1.92,1.92,0,0,1,1.77-1l7.6.65a1.59,1.59,0,0,0,1.59-1.09L219.13,76a1.58,1.58,0,0,0-.73-1.78l-6.72-3.65a1.92,1.92,0,0,1-.92-1.82c.22-1.66.35-3.32.41-5a2,2,0,0,1,1.2-1.65l7.22-2.5a1.6,1.6,0,0,0,1-1.64Z"/><path class="cls-1" d="M68.16,38.21a2.54,2.54,0,0,1,.72-.24h.18a.8.8,0,0,1,.6.36l.72,1c.06.18.48.36.72.36l2.1.72a.91.91,0,0,1,.6.36l.66,1.14c.24.07.07.37,0,.55L73.14,43.8c-.12.12-.24.48-.42.66l-.24,1.2v.84l.24.54a1.51,1.51,0,0,1,.24.85l.06.35a4.25,4.25,0,0,1-.06.84l-.66,1.51a6.88,6.88,0,0,0-.36.72l-1.38,3.48a1.62,1.62,0,0,0-.18.9,2.88,2.88,0,0,1,0,.72c-.36,2.23-1.32,7.63-1.5,8.11l-1.09,3.13a2.15,2.15,0,0,0-.29.84c-.18.66-.07.84-.42,1.32l-2,3.42a1.42,1.42,0,0,1-.48.54L63,75.52c-.06.18-.3.42-.36.66l-1.44,3.66a4,4,0,0,0-.06.78v3.85a3,3,0,0,1-.18.77l-.24.85a.42.42,0,0,1-.55.18l-.71-.36c-.13-.12-.48-.25-.66-.49l-.3-.18a2.63,2.63,0,0,1-.18-.77l.18-1a3,3,0,0,0-.07-.78l-.84-1.8a1.42,1.42,0,0,0-.54-.72l-1.8-1.62a1.08,1.08,0,0,0-.78-.3H54.4a.81.81,0,0,1-.6-.42l-1.32-1.86c-.12-.19-.18-.48-.3-.73l-.36-1.32c0-.18-.12-.6-.12-.78V71.73c0-.24-.07-.48-.31-.54l-1-.84c-.25-.06-.31-.48-.31-.66l.06-.66c0-.24.18-.54.18-.78l.18-1c0-.17.24-.48.24-.66l.19-.11a.72.72,0,0,0,.18-.73l-.18-4.08A.93.93,0,0,1,51.1,61l7-12.25a3,3,0,0,1,.53-.73l1.56-1.8a2.41,2.41,0,0,0,.55-.6l1.74-3.9a.9.9,0,0,1,.54-.42l1.8-.66a3.15,3.15,0,0,1,.9-.31l1.08-.17c.24-.13.49-.37.49-.55a1.45,1.45,0,0,1,.24-.78Z"/></g></g></svg>