<svg xmlns="http://www.w3.org/2000/svg" xmlns:xlink="http://www.w3.org/1999/xlink" viewBox="0 0 35 50.63"><defs><style>.cls-1{isolation:isolate;}.cls-2{mix-blend-mode:multiply;fill:url(#radial-gradient);}.cls-3{fill:url(#未命名漸層_66);}.cls-4{fill:url(#未命名漸層_64);}.cls-5{fill:#fff;}</style><radialGradient id="radial-gradient" cx="177.1" cy="32743.99" r="24.05" gradientTransform="translate(-97.69 -3619.39) scale(0.65 0.11)" gradientUnits="userSpaceOnUse"><stop offset="0" stop-color="#858585"/><stop offset="0.06" stop-color="#9a9a9a"/><stop offset="0.16" stop-color="#b9b9b9"/><stop offset="0.27" stop-color="#d3d3d3"/><stop offset="0.39" stop-color="#e6e6e6"/><stop offset="0.53" stop-color="#f4f4f4"/><stop offset="0.7" stop-color="#fdfdfd"/><stop offset="1" stop-color="#fff"/></radialGradient><linearGradient id="未命名漸層_66" x1="3.75" y1="34.01" x2="31.25" y2="6.5" gradientUnits="userSpaceOnUse"><stop offset="0" stop-color="#006934"/><stop offset="1" stop-color="#228d38"/></linearGradient><linearGradient id="未命名漸層_64" x1="8.96" y1="26.04" x2="26.04" y2="8.96" gradientUnits="userSpaceOnUse"><stop offset="0" stop-color="#228d38"/><stop offset="1" stop-color="#006934"/></linearGradient></defs><g class="cls-1"><g id="圖層_2" data-name="圖層 2"><g id="文字內容"><path class="cls-2" d="M33.14,47.94c0,1.49-7,2.69-15.64,2.69S1.86,49.43,1.86,47.94s7-2.7,15.64-2.7S33.14,46.45,33.14,47.94Z"/><path class="cls-3" d="M35,17.5C35,30,21.93,43.43,18.38,46.86a1.26,1.26,0,0,1-1.76,0C13.07,43.43,0,30,0,17.5a17.5,17.5,0,0,1,35,0Z"/><path class="cls-4" d="M29.58,17.5A12.08,12.08,0,1,1,17.5,5.42,12.08,12.08,0,0,1,29.58,17.5Z"/><path class="cls-5" d="M24.66,16.53l1.63-1.47c-.44-1.08-.44-1.08-.89-2.15L23.21,13l-1.29-1.29L22,9.54l-2.15-.89-1.46,1.63H16.58L15.12,8.65,13,9.54l.11,2.19L11.79,13,9.6,12.91C9.15,14,9.15,14,8.71,15.06l1.63,1.47v1.83L8.71,19.82,9.6,22l2.19-.11,1.29,1.29L13,25.34l2.15.89,1.46-1.63h1.84l1.46,1.63L22,25.34l-.11-2.19,1.29-1.29L25.4,22l.89-2.15-1.63-1.46ZM17.5,23.16a5.72,5.72,0,1,1,5.72-5.72A5.72,5.72,0,0,1,17.5,23.16Z"/><circle class="cls-5" cx="17.5" cy="17.44" r="4.26"/></g></g></g></svg>