<svg xmlns="http://www.w3.org/2000/svg" viewBox="0 0 277.6 65"><defs><style>.cls-1{fill:#007934;}</style></defs><g id="圖層_2" data-name="圖層 2"><g id="選單"><path class="cls-1" d="M109.77,25.41H82.89v14H98.26C93,50.12,75.88,58,55.55,58c-24.5,0-42-11.4-42-25.47S31.05,7,55.55,7c16.17,0,30.32,5,38.07,12.39h12.79C97.81,8,78.28,0,55.55,0,24.87,0,0,14.55,0,32.5S24.87,65,55.55,65,111.1,50.45,111.1,32.5A19.82,19.82,0,0,0,109.77,25.41Z"/><polygon class="cls-1" points="46.32 39.62 46.32 25.11 43.37 25.11 43.37 29.47 40.44 29.47 40.44 25.11 37.48 25.11 37.48 29.47 36.17 29.47 34.56 32.42 37.48 32.42 37.48 39.62 40.44 39.62 40.44 32.42 43.37 32.42 43.37 39.62 46.32 39.62"/><path class="cls-1" d="M67.12,39.62V28.05h2.52l1.61-2.94H54.76a7.23,7.23,0,1,0,5.84,2.94h3.57V39.62ZM54.76,36.67a4.31,4.31,0,1,1,4.31-4.31A4.3,4.3,0,0,1,54.76,36.67Z"/><path class="cls-1" d="M80.22,39.62V29.44a4.32,4.32,0,0,0-4.33-4.33h0a4.33,4.33,0,0,0-4.33,4.33v5.68h-1.4l-1.61,3h3v1.55h2.94V38.07h2.82v1.55Zm-5.76-4.5V29.44a1.4,1.4,0,0,1,1.39-1.39h0a1.39,1.39,0,0,1,1.39,1.39v5.68Z"/><polygon class="cls-1" points="127.08 48.22 123.61 48.22 123.61 44.7 121.81 44.7 121.81 53.48 123.61 53.48 123.61 49.8 127.08 49.8 127.08 53.48 128.88 53.48 128.88 44.7 127.08 44.7 127.08 48.22"/><path class="cls-1" d="M136.17,44.53a4.61,4.61,0,1,0,5.07,4.6A4.83,4.83,0,0,0,136.17,44.53Zm0,7.59a3.2,3.2,0,0,1-3.26-3,3.28,3.28,0,0,1,6.53,0A3.2,3.2,0,0,1,136.17,52.12Z"/><polygon class="cls-1" points="142.52 46.28 144.31 46.28 144.31 53.48 146.11 53.48 146.11 46.28 147.93 46.28 147.93 44.7 142.52 44.7 142.52 46.28"/><path class="cls-1" d="M152.63,44.7l-4.06,8.78h2l1.08-2.27h3.44l1.06,2.27h2L154,44.7Zm-.34,4.93,1-2.66,1,2.66Z"/><rect class="cls-1" x="164.51" y="44.7" width="1.8" height="8.79"/><polygon class="cls-1" points="175.12 51.12 171.07 44.7 169.05 44.7 169.05 53.48 170.85 53.48 170.85 47.09 174.93 53.48 176.92 53.48 176.92 44.7 175.12 44.7 175.12 51.12"/><path class="cls-1" d="M185.76,45.72a6.6,6.6,0,0,0-4.08-1h-2v8.78h2.08a6.23,6.23,0,0,0,4-1,4.33,4.33,0,0,0,1.67-3.34A4.41,4.41,0,0,0,185.76,45.72Zm-1.3,5.59a4.79,4.79,0,0,1-2.8.59h-.22V46.28h.13a5.23,5.23,0,0,1,2.77.52,2.72,2.72,0,0,1,1.28,2.33A2.67,2.67,0,0,1,184.46,51.31Z"/><path class="cls-1" d="M194.47,50.18a2.25,2.25,0,0,1-.26,1.32,1.54,1.54,0,0,1-1.23.62,1.49,1.49,0,0,1-1.29-.75,2.32,2.32,0,0,1-.18-1.19V44.7h-1.8v5.48a3.16,3.16,0,0,0,.79,2.45,3.45,3.45,0,0,0,5.06-.07,3.26,3.26,0,0,0,.71-2.38V44.7h-1.8Z"/><path class="cls-1" d="M203.55,48.92a5.82,5.82,0,0,0-1.89-.81c-.59-.18-1.24-.43-1.23-1.07a.9.9,0,0,1,1-.93,1,1,0,0,1,1.09.92h1.86a2.72,2.72,0,0,0-2.84-2.5,2.68,2.68,0,0,0-2.87,2.5,2.39,2.39,0,0,0,.76,1.68,3.82,3.82,0,0,0,1.68.81c.81.24,1.7.53,1.7,1.49a1.18,1.18,0,0,1-1.26,1.11A1.22,1.22,0,0,1,200.15,51h-1.88a3.18,3.18,0,0,0,6.3-.09A2.3,2.3,0,0,0,203.55,48.92Z"/><polygon class="cls-1" points="205.88 46.28 207.67 46.28 207.67 53.48 209.47 53.48 209.47 46.28 211.28 46.28 211.28 44.7 205.88 44.7 205.88 46.28"/><path class="cls-1" d="M218.73,49.39a3,3,0,0,0,.81-1.91,2.76,2.76,0,0,0-1.14-2.16,4,4,0,0,0-2.52-.62h-2.82v8.78h1.8V50.12h0l2.53,3.36h2.22L217,50.24A3.23,3.23,0,0,0,218.73,49.39Zm-3.87-.51v-2.6h1a2.2,2.2,0,0,1,1.34.29,1.18,1.18,0,0,1,.53,1,1.23,1.23,0,0,1-.45.95,2.25,2.25,0,0,1-1.43.37Z"/><rect class="cls-1" x="221.55" y="44.7" width="1.8" height="8.79"/><path class="cls-1" d="M229.34,44.7l-4.05,8.78h2l1.08-2.27h3.45l1,2.27h2l-4.09-8.78ZM229,49.63l1-2.66,1,2.66Z"/><polygon class="cls-1" points="238.49 44.7 236.68 44.7 236.68 53.48 241.46 53.48 241.46 51.9 238.49 51.9 238.49 44.7"/><polygon class="cls-1" points="252.93 51.41 250.33 44.7 247.87 44.7 247.87 53.48 249.67 53.48 249.67 46.9 252.18 53.48 253.7 53.48 256.22 46.9 256.22 53.48 258.02 53.48 258.02 44.7 255.57 44.7 252.93 51.41"/><polygon class="cls-1" points="260.56 53.48 262.37 53.48 262.37 49.88 265.36 49.88 265.36 48.3 262.37 48.3 262.37 46.28 265.51 46.28 265.51 44.7 260.56 44.7 260.56 53.48"/><path class="cls-1" d="M271.26,49v1.53h4.07a3.37,3.37,0,0,1-2.85,1.59,3.67,3.67,0,0,1-2.51-1,2.92,2.92,0,0,1-.93-2.05,3,3,0,0,1,1.12-2.21,3.64,3.64,0,0,1,2.25-.76A3.31,3.31,0,0,1,275,47.28h2.16a5.14,5.14,0,0,0-4.7-2.75c-2.79,0-5.17,2-5.17,4.61s2.39,4.56,5.19,4.56,5.17-1.94,5.17-4.51V49Z"/><polygon class="cls-1" points="220.81 18.25 234.25 18.25 234.25 14.97 201.68 14.97 201.68 18.25 215.13 18.25 215.13 34.34 200.55 34.34 200.55 37.62 235.39 37.62 235.39 34.34 220.81 34.34 220.81 18.25"/><polygon class="cls-1" points="139.51 23.4 139.51 20.12 133.72 20.12 133.72 17.32 138.75 17.32 138.75 14.04 122.43 15.24 122.43 17.32 127.86 17.32 127.86 20.12 121.73 20.12 121.73 23.4 127.86 23.4 127.86 38.06 133.72 38.06 133.72 23.4 139.51 23.4"/><polygon class="cls-1" points="120.69 36.47 125.26 36.47 127.25 24.34 122.68 24.34 120.69 36.47"/><polygon class="cls-1" points="134.41 25.46 135.06 33.69 139.62 33.69 138.98 25.46 134.41 25.46"/><path class="cls-1" d="M148.66,15h-8.17V38.06h14V15h-5.85Zm-2.32,19.81V18.25h2.32V34.78Z"/><path class="cls-1" d="M277,20.41V17.13h-3.61l1.15-2.51h-5.85l-1.15,2.51H266V13.75h-5.85v3.38H257.9V13.75h-5.85v3.38h-1.54l-1.14-2.51h-5.86l1.15,2.51h-3.6v3.28H248l.67,1.47h-7.61v3.28H256v.89h-12v3.28h12v.89H241.06V33.5H256v4.85h6.16V33.5H277V30.22H262.11v-.89h12.05V26.05H262.11v-.89H277V21.88h-7.44l.67-1.47Zm-13.29,1.47h-9.18l-.68-1.47h10.53Z"/><polygon class="cls-1" points="247.46 35.27 242.02 35.27 242.02 38.24 244.77 38.24 250.26 38.24 251.57 38.24 255.05 34.4 248.25 34.4 247.46 35.27"/><polygon class="cls-1" points="269.8 34.4 263 34.4 266.48 38.24 267.79 38.24 273.29 38.24 276.04 38.24 276.04 35.27 270.6 35.27 269.8 34.4"/><path class="cls-1" d="M180.57,21.22h14.12V17.94H179.43v-5h-4.75v5H160.36v3.28h14.16c-1,5-6.16,9.83-14.34,13.33l3.3,3.73c8.17-3.77,12.2-8.18,14.16-11.92,2.08,3.62,6.14,7.78,13.93,11.37L194.88,34C187,30.64,181.82,26,180.57,21.22Z"/></g></g></svg>