<svg xmlns="http://www.w3.org/2000/svg" xmlns:xlink="http://www.w3.org/1999/xlink" viewBox="0 0 360 206.74"><defs><style>.cls-1{isolation:isolate;}.cls-2{fill:url(#未命名漸層_54);}.cls-10,.cls-13,.cls-16,.cls-3,.cls-7{mix-blend-mode:multiply;}.cls-3{fill:url(#radial-gradient);}.cls-4{fill:url(#未命名漸層_66);}.cls-5{fill:url(#未命名漸層_64);}.cls-21,.cls-6{fill:#fff;}.cls-7{fill:url(#radial-gradient-2);}.cls-8{fill:url(#未命名漸層_66-2);}.cls-9{fill:url(#未命名漸層_64-2);}.cls-10{fill:url(#radial-gradient-3);}.cls-11{fill:url(#未命名漸層_66-3);}.cls-12{fill:url(#未命名漸層_64-3);}.cls-13{fill:url(#radial-gradient-4);}.cls-14{fill:url(#未命名漸層_66-4);}.cls-15{fill:url(#未命名漸層_64-4);}.cls-16{fill:url(#radial-gradient-5);}.cls-17{fill:url(#未命名漸層_66-5);}.cls-18{fill:url(#未命名漸層_64-5);}.cls-19{fill:none;stroke:#323e48;stroke-miterlimit:10;stroke-width:0.25px;}.cls-20{fill:#323e48;}.cls-21{font-size:12px;font-family:NotoSansCJKtc-DemiLight-B5pc-H, Noto Sans CJK TC;letter-spacing:0.08em;}</style><linearGradient id="未命名漸層_54" x1="86.61" y1="204.5" x2="299.41" y2="-8.3" gradientUnits="userSpaceOnUse"><stop offset="0" stop-color="#505050"/><stop offset="0.01" stop-color="#5b5b5b"/><stop offset="0.1" stop-color="#aaa"/><stop offset="0.15" stop-color="#c9c9c9"/><stop offset="0.28" stop-color="#a4a5a5"/><stop offset="0.45" stop-color="#cacaca"/><stop offset="0.56" stop-color="#c9c9c9"/><stop offset="0.68" stop-color="#cacaca"/><stop offset="0.83" stop-color="#c9c9c9"/><stop offset="1" stop-color="#505050"/></linearGradient><radialGradient id="radial-gradient" cx="333.14" cy="28951.26" r="6.6" gradientTransform="translate(110.43 -3098.78) scale(0.64 0.11)" gradientUnits="userSpaceOnUse"><stop offset="0" stop-color="gray"/><stop offset="0.07" stop-color="#9a9a9a"/><stop offset="0.17" stop-color="#b9b9b9"/><stop offset="0.28" stop-color="#d3d3d3"/><stop offset="0.4" stop-color="#e6e6e6"/><stop offset="0.53" stop-color="#f4f4f4"/><stop offset="0.7" stop-color="#fdfdfd"/><stop offset="1" stop-color="#fff"/></radialGradient><linearGradient id="未命名漸層_66" x1="318.71" y1="69.53" x2="326.08" y2="62.15" gradientUnits="userSpaceOnUse"><stop offset="0" stop-color="#006934"/><stop offset="1" stop-color="#228738"/></linearGradient><linearGradient id="未命名漸層_64" x1="320.1" y1="67.39" x2="324.69" y2="62.81" gradientUnits="userSpaceOnUse"><stop offset="0" stop-color="#228738"/><stop offset="1" stop-color="#006934"/></linearGradient><radialGradient id="radial-gradient-2" cx="311.8" cy="29100.34" r="6.6" xlink:href="#radial-gradient"/><linearGradient id="未命名漸層_66-2" x1="305.13" y1="85.86" x2="312.51" y2="78.49" xlink:href="#未命名漸層_66"/><linearGradient id="未命名漸層_64-2" x1="306.52" y1="83.73" x2="311.11" y2="79.14" xlink:href="#未命名漸層_64"/><radialGradient id="radial-gradient-3" cx="292.51" cy="28988.17" r="6.6" xlink:href="#radial-gradient"/><linearGradient id="未命名漸層_66-3" x1="292.85" y1="73.57" x2="300.23" y2="66.2" xlink:href="#未命名漸層_66"/><linearGradient id="未命名漸層_64-3" x1="294.25" y1="71.44" x2="298.83" y2="66.85" xlink:href="#未命名漸層_64"/><radialGradient id="radial-gradient-4" cx="-68.23" cy="28869.67" r="6.6" xlink:href="#radial-gradient"/><linearGradient id="未命名漸層_66-4" x1="63.33" y1="60.59" x2="70.7" y2="53.21" xlink:href="#未命名漸層_66"/><linearGradient id="未命名漸層_64-4" x1="64.72" y1="58.45" x2="69.31" y2="53.87" xlink:href="#未命名漸層_64"/><radialGradient id="radial-gradient-5" cx="-127.17" cy="28973.94" r="6.6" xlink:href="#radial-gradient"/><linearGradient id="未命名漸層_66-5" x1="25.83" y1="72.01" x2="33.2" y2="64.64" xlink:href="#未命名漸層_66"/><linearGradient id="未命名漸層_64-5" x1="27.22" y1="69.88" x2="31.81" y2="65.29" xlink:href="#未命名漸層_64"/></defs><g class="cls-1"><g id="圖層_2" data-name="圖層 2"><g id="圖層_1-2" data-name="圖層 1"><path class="cls-2" d="M104.28,162.05c1.72-2.3,5.24-.55,6.82-2.85a21.41,21.41,0,0,0,1.42-3.57,12.08,12.08,0,0,0,1.43-3.89c0-1.9-1.43-4.75-.45-6.5.3-.55.82-.79,1.27-1.19.75-.79.6-1.27,1-2.21.53-1.43,2-1.83,2.26-3.42a12.22,12.22,0,0,0-.08-3.25,3.9,3.9,0,0,0-.53-1.58c-.6-.79-.6-.4-1.42-.48-1.28-.15-1.65-.87-2.7-1.66a7,7,0,0,0-3.67-1.35l-1.35-.24a8.67,8.67,0,0,0-1.35,0c-1.2-.15-.82-.47-1.5-1.19a5.39,5.39,0,0,0-2.25-1.26c-1.05-.16-1.12.39-2,.47a3,3,0,0,0-.37-1.42l-.08-.24c-.75-.87-1.27-.4-1.57-1.75-.08-.39.07-.87,0-1.18-.23-.48-.75-.48-.9-1-.3-.79.15-1.66-.3-2.53a6.12,6.12,0,0,0-2.1-1.91c-2.4-1.5-5.1.32-6.75-2.22A5.66,5.66,0,0,0,87,113.53a15.62,15.62,0,0,1-2.1-2c-1-1-1-1.42-2.48-1a5.1,5.1,0,0,1-3.45,0,12,12,0,0,1-1.72-.47c-.53-.25-1.12-.88-1.73-1-1-.15-1.57,1.19-2.62.79.08-.31.9-1.1.53-1.5s-1.2.32-1.43.4c-1.05.55-2.62.71-3.45,1.35-1,.79-.67,3-1.8,3.32s-.82-.63-1.27-1a1.85,1.85,0,0,0-1.72-.23v.15c-1-.47-1.73.8-2.78.56-.82-.24-.75-.56-1.35-1.19-.3-.39-.9-.71-1.2-1.19a3.92,3.92,0,0,1,.23-3.17c.52-1.43.82-2,.3-3.49-.3-.71,0-.79-.9-1.19a3.15,3.15,0,0,0-1.88-.08c-.67.08-2.54,1.12-3.07.08s1.42-4,1.72-5c.23-.64,1.28-2.22.9-2.85s-2.62-.32-3.14,0c-1.21.63-.83,1.74-1.35,2.77a4.56,4.56,0,0,1-2.55,1.75,5.39,5.39,0,0,1-3.3-.48c-1.27-.79-.9-2-1.27-3.25-.38-1.43-1.21-2.3-.83-3.89.3-1.19,1.2-2.06,1.42-3.33s.15-2.14,1.2-3.09a16.49,16.49,0,0,1,2.78-2c1.5-1,2.25-.4,3.9-.24a3.37,3.37,0,0,0,2.47-.31c.45-.4.22-.8.82-1.11a7.14,7.14,0,0,1,3.68-.08c.6.23.82.79,1.35.94s.67-.31,1.27.25c1.35,1.18-.52,5.94,2,6.1s1.42-4.76,1.12-6c-.9-3.49,1.12-5.07,4-6.26a7.68,7.68,0,0,0,3.44-2.38c1-1.42.75-2.22,1-3.72.38-1.67,1.13-.32,2.18-1.19A21.93,21.93,0,0,0,78.71,66l.08-.16c.82-1,1.57-.24,2.62-.48,1.28-.39.83-1.5,1.35-2.61.67-1.35,1.65-1.27,2.85-1.67,1-.39,1.87-1.11,3-1.43.45-.23,2.77-.79,1.57.56-.3.4-3.14.71-1.27,1.67C90,62.32,91,60.66,92,60.42c.68-.24,2.63-.24,2.1-1.59-.37-.95-2.1-.16-2.62-1.11C90.71,56.37,92.73,56,93,55.18c1-2.45-5.77.64-6.15.32-.89-.79,1.35-2.22,2-2.45,1-.32,2.18.07,3.3-.24a9.39,9.39,0,0,1,3.38-.48c1.72.24,2.17.56,3.82-.55,1.42-1,4.65-.72,4.57-3.41,0-1-1.12-2.14-1.87-2.78-1.2-1-1.5-.87-1.5-2.61,0-1.11.3-2.54-.45-3.25-1.35-1.11-2.47.39-3.75.55A2.59,2.59,0,0,1,95,40.2c-1-.79.07-.63.15-1.5a6.17,6.17,0,0,0-1.5-2.78c-.38-.31-4.42-.71-5.17-.23-1.35.79-.3,2.61-1.28,3.48-.67.72-2.7-.24-2,2,.3,1,1.43,1.75.38,2.94-1.8,2-4.42.08-5,3.33-.15.95-.23,2.53-1.13,3.09a2.08,2.08,0,0,1-2.55-.87c-.82-1.9,1.35-1.9,1.58-3.09.3-1.59-1.8-.88-2.62-1a8.59,8.59,0,0,1-2.93-1.82c-.52-.47-.45-1.19-1.27-1.27-.6,0-1.2.88-2,.56,0-1.27,1.13-2.14-.6-2.54a2.42,2.42,0,0,1,.3-.63l-.22.15c.37-.79.07-1.5.75-2.06.45-.39,1-.08,1.5-.31,1.12-.56,1.57-1.59,3-1.83a9.12,9.12,0,0,0,3.44-1.58c1.13-.72,2.25-.87,3.45-1.51.9-.55,1.65-1.82,2.55-2.14s2.32.48,3.45.16a9.78,9.78,0,0,0,3.3-2.62c1-1.74-1-1.11-2-.95a5.27,5.27,0,0,0-2.55,1.27c-1.72,1.27-1.12-.16-1.8-1.11-.45-.63-1.05-.32-1.27-1.11-.08-.47.44-1,.3-1.43-.38-1.5-1.58-.39-2.18.24-.15.08-.07.56-.22.72-.38.31-.75,0-1.13.15-.67.4-.52.64-.82,1.35-.68,1.67-1.13,1.11-2.63,1.43a5.5,5.5,0,0,1-1.72.39,11.37,11.37,0,0,0-2.77-.31c-.68.16-.9.71-1.73.47-.45-.16-.82-.63-1.35-.87-2.55-1-5.32,2.46-8.09.87-1-.63-1-1.58-2.25-2a8.35,8.35,0,0,0-2-.47c-1-.16-2.32.15-3.22-.16s-1-1-2.17-1.11a8.73,8.73,0,0,0-3.23.24,11.43,11.43,0,0,1-3.52,1.18c-1.42.16-1.87.64-3.22.16a14.88,14.88,0,0,1-1.8-.55c-.45-.4,0-.79-.75-1.11s-2.48,0-3.3,0a13.66,13.66,0,0,1-4-.32,6.41,6.41,0,0,0-3-.71l.08.08c-1.28.15-2.33.55-3.6.63a8.72,8.72,0,0,0-3.52.48c-1.2.47-2.55.95-3.83,1.34-.67.24-3.67.4-3.9.88-.52.95,1.5,1.42,1.5,2.14s-2,1.5-2.55,1.35c-.37-.08-.74-.72-1.42-.88a2.34,2.34,0,0,0-1.65.4c-.52.24-1.72,1-1.87,1.66,1.12.48,2.24.24,3.45.32,2.54.24-.23,1.11-1.21,1.51-2.17.87-7.34,1-7.87,4.2-.44,2.22,1.43.16,2,.63s-2,1.51,0,2.06c.52.08,3.15-1.11,2,.4-.45.71-2.39.87-3.15,1.27C2.25,43,0,44,0,44.56c0,1.35,3.15-.39,3.67-.55A7.82,7.82,0,0,0,7.5,42.26c1.27-1.11,2.92-1.34,4.19-2.3a12,12,0,0,1,3.23-2.06c1.27-.47,1.5,0,.52.88-.6.47-2.4,1.18-1,1.66,1,.32,2.4-1.19,3.15-1.66,1.13-.72,1.88-1.35,3.22-.88s2.4.72,3.6,1.11c2.4.88,3.75,3.65,3.45,6.35-.15,1.11-1,2.21-.9,3.32s1.28,1.91,1.8,2.86c.3.47,1.27,3.09.6,3.49s-1-2.22-1.5-2.54c-1-.63-1.65.48-1.2,1.35.53,1.19,1.35.95.75,2.53a24.18,24.18,0,0,1-1.72,3.17c-.75,1.35-1.95,1.75-2.85,2.86s-.15,2.46-.75,3.65c-.37.87-1.72,1-1.88,2.14A11.09,11.09,0,0,0,21,71a12.86,12.86,0,0,1,.22,2.38l-.07-.32c.07.72-.22,2.3.23,2.78.3.31,1,.23,1.27.4.67.47.6.71.9,1.34.37,1.11,1,2.06.82,3.25a5.22,5.22,0,0,0-.3,1.43c.15.79.6.55.83,1.11.6,1.35-.53,2.06-.45,3.09s1.2.87,1.72,1.35.53.79.75,1.58.75,2.62,1.8,2.7c1.43,0,0-1.9-.22-2.54A16,16,0,0,1,28,87c-.3-1-1.05-1.66-1.27-2.61-.08-.48.07-1,0-1.35-.23-.63-.68-.79-.9-1.35s-.38-1.58.52-1.74l.15-.08c1.58-.24,1.73,1.11,1.73,2.3A4.75,4.75,0,0,0,29,85.07a18.13,18.13,0,0,1,1.2,3.17c.6,1.27,1.73,2.07,2.4,3.34.45.87,1.42,2.13,1.5,3.17s-1,1.74-.52,2.93,2.69,2,3.74,3c1.2,1.19,2.48,1.27,4,1.82a4.9,4.9,0,0,0,3.52.16,3.24,3.24,0,0,1,3.6,1.11c.22.48-.08.79.37,1.27a3.92,3.92,0,0,0,1.43.71,17.76,17.76,0,0,0,3.29,1.12c1.21.39.68,1.18,1.58,1.82.37.24,1-.16,1.35.24.67.79-.23.63-.37,1.19-.38,1.66.74,1.82,1.79,2.61.9.63,1.58,2,2.78,2.3,1.42.32,2.55-2.46,3.44-1.74l-.14-.16c.74.63,1.12,2.14,1.42,3a5.91,5.91,0,0,1,.3,2.78c-.07,1.58-.23,2.61-1.35,3.64a4,4,0,0,0-1.12,1.11c-.08.16.14.55,0,.71-.23.32-.6.24-.75.48-1.2,1.27-2.1,3.25-1.13,5.07a4.49,4.49,0,0,0,.75.87c.15,1-.15.56-.67,1-.75.71-.75.07-.83,1.26a6.75,6.75,0,0,0,.15,1.67c.23,1.58,1.2,1.11,2,2.38,1,1.51,1,3,2.32,4.36,2.1,2.22,2.25,6.34,5,8.16,1.35.88,2.62.64,3.83,2,.67.72,2,1.51,2.32,2.38a19.25,19.25,0,0,1,.15,2.94c0,1,.07,2.06.07,3.09v1l-.14.08c-.08,2.06.67,3.88.89,5.86.23,2.15-.22,4.44.08,6.66a28.43,28.43,0,0,1,.3,4.36c0,1.35-.68,2.46-.53,3.65s.9,2.22,1,3.41a6.62,6.62,0,0,0,.45,2.38c.38.71.45.39,1,.79,2.1,1.67,1.8,5.79,2.92,8.17a26.35,26.35,0,0,1,.83,3c.37,1.27,1.64,2.53,2.39,3.72S87,205,88.31,204.46c.52-.16.6-1,1.42-.47.53.31.6,1.19,1,1.66a2.12,2.12,0,0,0,2.32,1c.45,0,1,.24,1.2-.24.38-.95-.6-.71-1-.95a5,5,0,0,1-2.4-2,9.58,9.58,0,0,0-.75-1.58c-.52-.8-.82-.72-.82-1.83.07-2.53,3-3.49.22-5.15-1-.64-1.72-1.11-.82-2.3.3-.47.9-.47,1.12-1,.15-.4-.15-1,0-1.51.38-1.34,1.35-1.18-.07-2.14-1-.63-1.8-1.58,0-1.42,1.12.07,1.42.55,1.5-1.11,0-1.27-.83-2.38,1-2.46,1.2-.08,2.33.63,3.3-.79a3.45,3.45,0,0,0,0-3.1c-.52-1.18-2-2.22.08-2,.89.08,1.42.48,2.47,0,1.2-.39.75-.39,1-1.35.15-.39.22-.71.37-1.11a4.43,4.43,0,0,0,.68-1.26,6.3,6.3,0,0,1,1.5-3.41c1.5-1.51,2.17-2.38,1.87-4.68-.22-2.06-.22-2.14,1.2-3.49"/><path class="cls-2" d="M203.08,73.16c-.3,1.69.3,2.75-.3,4.44-.4,1.37-.2,2.53-1.4,3-1.5.53-2.3-.74-3.5-1-1.5-.22-2,1.37-3.6,1a24.93,24.93,0,0,1-3.89-1.27c-1.4-.53-2.3-1.9-3.8-1.8-2.2.21-1.3,1.59-1.9,3-.9,2.43-2.1,0-3.4-.53-.5-.21-1.1.11-1.5-.1-.7-.32-.6-.85-1.1-1.27-1.2-.85-2.6-.42-3.8-1.16h0c-.5-.42-1.6-.84-1.7-1.58s.5-1,.8-1.69c.6-1.9-.1-3-1.8-3-2.7,0-5.4.84-8.09,1.06a9.32,9.32,0,0,0-4.4,1.05c-1.2.64-2.1,1.48-3.6,1.16-2.1-.42-1.7-.74-3.1,1.06-1.2,1.59-3.1,2.22-3.7,4.23-.39,1.27-.2,2.74-1.2,3.8s-2.1,1.9-3,2.86c-.5.42-1.3.85-1.6,1.48s-.1,1.27-.3,1.79c-.6,1.48-2.2,1.8-2.6,3.38s.4,3.18.6,4.55c.2,1.8-.3,2.75-.7,4.44a10,10,0,0,0,1.6,8.25c1.1,1.48,2.6,2.54,3.5,4a14.74,14.74,0,0,0,2.79,3.8c1.8,1.79,3.2,1.58,5.1,1,1.6-.64,3.2.21,5.1-.1,3-.54,5.9-3.92,8.5-.54.39.43.69,1.27,1.2,1.48.79.21,1.09-.52,1.7-.63a2.68,2.68,0,0,1,2.69,3v.21l-.1-.31c.21,3.17-2.3,5.17-.2,7.92.9,1.27,2.3,2,3,3.38s.5,2.75,1,4.13a30.09,30.09,0,0,1,.7,4.33c.4,2.11.5,2-.6,3.81a8.79,8.79,0,0,0,.1,10c.9,1.27,2,3.06,1.9,4.75,0,2-.6,2.23.6,4.34a31.91,31.91,0,0,1,1.7,4.33c.6,1.38,1.6,2.43,1.8,4s-.5,3.07.8,4.23c1.2,1,2.6,0,4-.21,2-.32,4.59-.53,6.29-1.8,1.1-1,1.7-2.43,2.7-3.59s2.3-2,2.9-3.6c.4-1.06.3-2.43.7-3.49.6-1.48,2-1.48,3.1-2.53a3.94,3.94,0,0,0,.7-3.39c-.2-1.37-.9-2.53-.3-3.91s2.1-2.32,3.2-3.06c1.5-1.06,3.4-2,4.1-3.81.59-1.37-.11-2.75-.3-4.23a19.19,19.19,0,0,0-.3-4.12,6.2,6.2,0,0,1-.51-3.49c.11-3-1-6,2.21-7.71l-.11-.11c1.4-1.06,2.21-2.43,3.4-3.48a27.45,27.45,0,0,0,3.7-3.18c2-2.43,3.2-6.13,4.3-9.2.3-1,1.3-3.69-.6-4-.9-.1-2.5,1.69-3.6,1.8a14.78,14.78,0,0,1-3.7,0c-2.2-.42-1.5-1.48-2-3.17-.6-2.23-3.5-2.44-4.6-4.23-.6-.85-.1-2.22-.7-3.28-.8-1.16-1.6-1.16-2-2.64-.2-1.06,0-2.22-.3-3.28-.3-1.48-1.3-1.9-2.2-3a15.16,15.16,0,0,1-1.6-3.7c-.4-1.16-1.4-2.22-1.6-3.49.7-.21,2.9,1.17,3.5,1.69,1,1.06,1.8,3.28,2.5,4.65a20.23,20.23,0,0,1,1.9,3.92c.3,1.58-.4,2.21,1.09,3.27.61.42,1.21.42,1.8,1.06a8.85,8.85,0,0,1,1,1.69,12,12,0,0,1,1.91,4.13c.09,1.15-.41,2.63.89,3.06,1.1.32,3.3-1.06,4.3-1.27,1.9-.42,3.9-.1,5.1-1.79a15.65,15.65,0,0,1,2.7-3.17,31.26,31.26,0,0,0,3.5-2.86c.8-.74,2.69-3,2.69-4.23,0-1.9-2.89-2.33-4-3.27s-.9-2.86-2.5-1.48c-1,.94-.9,2.53-2.7,2.11a5.34,5.34,0,0,1-1.8-1.59c-.5-.84.2-1.27-.1-2.11s-1.9-.85-2.5-1.48a6.54,6.54,0,0,1-1.3-2.64l-.2-.32c.4-2,2-1.27,2.8-.32,1.2,1.48,1.2,2.43,2.9,3.18,1.2.52,2.6,1.26,3.9,1.15.7-.1,1-1.15,2-.52.7.52.3,1.27.7,1.79.9.85,2.7.43,3.79.54s2.1.63,3,.63c1.7,0,3.3-1.48,5-.32.9.74,1,2.22,1.8,3.28.3.31.6.31.9.63.1.32-.1.85,0,1.06.5.85.7,1.27,1.6,1.37,1.8.32.5-.85,1.7-1.37s1.2.85,1.2,1.79-.5,2-.4,3c.09,1.27,1,1.69,1.5,2.86s.1,2.22.6,3.38,1.4,1.8,1.79,3.06a51.94,51.94,0,0,0,2.4,5.5l-.09-.31c.89,1.48,2-.64,2.59-1.38,1.2-1.48.6-1.48.7-3.48.1-1.48.4-3.07.5-4.55.1-1.8,1.2-2.22,2.4-3.39,1-1,2.5-1.9,3.3-3.17,1-1.48.8-2,2.3-3.06.9-.63,2.6-1.8,3.8-1.16.9.42.4.74.8,1.37a7.69,7.69,0,0,0,1.5,1.69,7.11,7.11,0,0,1,2.1,3.91c.19,1.06-.11,3.07,1.29,3.07s1.21-2.54,2.3-2.11c.6.31,1.1,3.17,1.4,3.9a14.76,14.76,0,0,1,1.5,7.19c0,1.27-.3,2.23.2,3.38s1.8,2.23,2.5,3.5,1,2.74,1.9,3.69c1.1,1.27,2.5,2,2.4.11a28.72,28.72,0,0,0-.7-4.23c-.5-1.48-2.1-1.8-3.1-3-2.4-2.43-2.6-4-2.2-7.29.3-2,.8-1.91,2.3-1.06a5.48,5.48,0,0,1,2.8,2.86,15.64,15.64,0,0,0,1,1.27c.1.31.3,1.79.5,1.9,1.2,1,1.9-1,2.5-1.59,1-1.27,2.5-1.69,2.8-3.38a9.15,9.15,0,0,0-.7-4.65c-1.3-2.22-6.1-5.18-3.9-8.25a2.46,2.46,0,0,1,3.6-.42c.4.21.1,1.69,1.4,1.16.3-.1.3-1.26.79-1.58s1.1-.11,1.5-.32c.8-.32,1.1-1.16,2-1.27H299c4.9-.84,5.9-6.87,6.2-11.1-1.9-.1-.4-1-.5-2-.1-.74-1.8-2.43-2.3-3.07s-2.1-2-2.3-2.75c-.2-1.27,1.5-2.11,2.2-2.85-1-1.06-2.5.21-3.7-.21-.5-.21-2.5-1.8-2.5-2.33,0-.74,2.6-2.85,3.3-2.75,1.6.32-.2,2.44,1.2,3,1.7.64,2-2.85,3.8-.31.5.63.1.84.9,1.58.6.53,1.1.42,1.6,1.27.7,1.16.3,2.22.7,3.28s.1,1,1.2,1a11.75,11.75,0,0,0,1.8-.64c3.3-2.64-3.1-4.75-3.6-6.87-.2-1.37,1.1-1.79,1.2-3.17s-.8-3.17,1.6-2.43c.7.21.5,1.16,1.5,1.06s.9-.53.9-1.48c.09-.64-.4-1.37-.3-2.12a13.05,13.05,0,0,1,.7-2.11c.3-1.16.39-2.43.6-3.7.4-1.69-.1-1.8-.91-3.28-1-1.58-1-2.43-2.89-3.06-1.2-.32-2.3,0-3.4-.32-.8-.21-.8-.42-1.4-.74-.3-.21-1.2-.63-1.4-.84-.8-.53-.6.21-.8-1a5.3,5.3,0,0,1,.4-2.11c.5-1.06,1.3-3,2.4-3.38a5.1,5.1,0,0,1,2.2,0c.6.11,1.4.74,1.9.74.8,0,1-.63,1.6-.85,1.1-.21,1.3.53,2.09.74a2.89,2.89,0,0,0,2.11.21c1.29-.42.6-.31.6-1.26,0-.74-.4-3.39,1.49-2.33.9.53,1.21,3.07,2.8,1.48.6-.42.1-1.48.8-1.9.9-.64,1.5,0,1.6.84s-.7,1.27-.9,2c-.2,1,.3,1.48.1,2.33s-1.2.31-1.1,1.48c0,.63,1,1.37,1.3,1.79a29.72,29.72,0,0,0,3.2,3.92c.5.52,2.8,3.06,3.5,2.74,1-.42-.1-1.16-.1-1.58s-.1-.53-.1-.85c.1-.53.7-.53.8-.84.2-.74-.2-1.17-.3-2,0-.21.7-.32.7-1-.1-.43-.7-.74-.8-1.06-.3-.64-.4-1.69-.9-2.11-.7-.95-1.5-.43-2.3-.95-1.6-1.17-.9-2.75.8-2.65.9.11,1.4.74,2.3.74a13.63,13.63,0,0,0,2.2-.95h-.1c1.2-.74.9-2.11,2.5-2.43,1.2-.21,3,.32,1.29-1.27-.49-.63-3.89-1.69-1.69-2.85,1.2-.64,3.6,1.48,4.79,1.58.4.11,1.3.32,1.6,0,.8-.84-.2-1-.39-1.58-.91-2-1.31-1.59-3.2-2-2.8-.74-5.8-.85-8.5-1.9-3.1-1.06-8.3-3-11.6-2,.21.42.51,1.05.7,1.37-1.09.53-2.29-.74-3.39-1.05a18.38,18.38,0,0,0-4.8.1c-1.7,0-2.3-.42-3.9-1.06-1.4-.52-3.3-.21-4.8-.31a6.92,6.92,0,0,1-4.79-1.27c-2.1-1.27-4-1.16-6.3-1.16-1.1,0-2.9-.32-3.7.42s.1,1.27-1.3,1.58c-.6.11-1.5-.31-2.1-.31-1.3,0-1.1.53-2.1.84-1.39.42-2.2-.74-3.1-1.48a11,11,0,0,0-6.69-2.22c-.8.11-1.4.74-2.4.85-1.3.1-2.6-.74-4-.85-2.3-.1-4.9,1.38-7.1.64.3-1.27,2.3-.64,2.3-2.22,0-1.27-1.5-1.48-2.4-1.38h.1c-1.1,0-2.1.43-3,.32a14,14,0,0,1-3-1c-1-.32-1.69-1.06-2.79-.53s-.7,1.16-1.4,1.59a4.43,4.43,0,0,1-2,.21,11.57,11.57,0,0,0-3.3.31,11.33,11.33,0,0,0-1.8.32c-1.2.42-.7.42-1.4,1.06s0,.63-1.2.95c-.5.11-1.2-.21-1.7,0-2.19.74.3,1,.4,2.22-.89.32-6.59-1.27-6.29.85a7.27,7.27,0,0,0,1.5,1.48c.2.1-.1.63.2.84s1,.11,1.3.32c.79.53.7.1.7,1.37a2.82,2.82,0,0,1-.21,1.59c-.89,1.05-3.09.53-3.09-.85,0-.74.6-1.06.5-1.9a13,13,0,0,0-1.5-2.33c-.9-1.37-1.2-2.74-3-2.64-2,.11-2.6,1.37-1.2,2.85.7.64,3.1,2.54.7,2.33-1.3-.1-2.2-1.48-3.6-1.58-1.8-.11-2.4,1.05-3.8,1.58-1.1.42-3,0-4.19,0s-6.8,2.43-7.1,2,1-.85.8-1.38-1.4-.73-1.9-.52c-2.1.84.8,1.79-.8,3.06-.4.42-1.3-.1-1.9.21-.8.43-.5,1-.9,1.27-1.1,1.06-1.6,0-3,0-.8,0-.3.85-1.5.32a6.08,6.08,0,0,1-1.3-1.48c-.1-1.06,1.9-.53,2.8-.53s2.8.42,3.1-.63c.5-1.48-1.9-1.7-2.7-2-2.2-.74-4.9-1.38-6.9-2.12-1-.31-1.59-1.05-2.89-.84v-.11c-2.9-.1-5,.74-7.8,1.27-2.5.53-4,4.34-5.9,6.24a11,11,0,0,1-3.4,2.32c-1.7.74-2.9.43-3.29,2.54a4.77,4.77,0,0,0,.89,3.7c1.2,1.16,2.2-.11,3.3-.64,1.6-.84,2.1-.31,2.7,1.38.2.53.8,3.59,1,3.7.8.63,3.3-1.16,3.5-1.9.3-.53-.1-1.38.2-1.91.3-.74,1.1-.84,1.4-1.48.9-1.79-1.3-2.32-.8-4.12s2.3-1.48,3.2-2.53,1-2.75,2.6-2.23c2.1.64-.21,2.12-1,3.07-1.8,2.11-.3,5.29,2.3,4.54.89-.31,2.29-1.16,3.29-.84,1.7.53.9,1.8-.5,2-.8.1-2.3-.74-2.9.1-.7,1.17.81.85.7,1.48-.29,1.06-.89.74-1.59,1s-1-.43-1.6.73c-.2.43.1,1.27,0,1.7a7.05,7.05,0,0,0-1.2,1.37c-1.3.74-.5-.32-1.6-.42-1.4-.11-2.3,1.58-3.7,1.58-1,0-.9-.84-1.6-1.06-.9-.21-1.4.54-2.2.43-2.5-.11-1.2-1.48-1.1-2.85.2-2.12-1.9-1.48-2.2.1-.2,1.06,1.3,2.43.3,3.38-.6.74-2.7.42-3.69,1.27a35.91,35.91,0,0,1-2.7,2.54c-.5.42-1.1.63-1.5,1s-.6,1.48-1.2,1.7-2.8-2.22-2.4.31c-1,.22-2.7-.31-3,.95-.5,1.7,1.1,1.06,1.9,1.38,1.6.63,3.3,4.65.8,5.5-1.9.63-5-1.06-7,0-1.2.63-.7,2.11-.8,3.38s-.8,1.79-1.4,2.85c1.9.85-.4,2.65,2,3.07,1.4.21,2.6-.42,3.2,1.37,1.1-1.27,1.6-.21,2.9-.63,1-.32.6-.64,1.4-1.38.5-.53,1.5-.74,1.8-1.26s-.3-1.59,0-2.23A2.84,2.84,0,0,1,163,66c1.6-1,1.69-.53,2.5-2.22.59-1.27.4-1.37,2-1.27.6,0,1.4.32,2,.11.3-.11.2-.74.4-.74.5-.21.81.11,1.2,0,1.3-.32,2.4-.74,3.2.95.3.64-.1,1.48.4,2.12a14.09,14.09,0,0,0,1.9.63,13.05,13.05,0,0,1,2.5,1.06c.6.73.2,1.58.4,2.43.9,3.7.8-2.33,2.4-1.59.8-1.69-4.8-4.12-5.5-5.49s-.5-3.39,1.2-2.44c.6.32.9,1.59,1.4,2s1.2.43,1.8.85a6.85,6.85,0,0,1,2.8,2.64,6.68,6.68,0,0,1,.3,1.38,4.2,4.2,0,0,0,.5,1.69c.3.63,1,1.16,1.2,1.69s.49,1.9.79,2.11c1.21,1.06,2.31-1,2.31-1.9s-.81-2-.51-2.86c.4-1,2.1-.73,3.1-.84.5.74,0,1.27.1,2.11s.7,1.38,1.1,2.22c.3.53.5,1.16,1.1,1.48.3.21.7,0,1.1.11a7,7,0,0,1,.9.63c.8.11.9-.32,1.8-.42s1.3.53,2.1.53c1.1-.11,2.7-1.9,3.6-.21"/><path class="cls-2" d="M159.41,42.18c-.18,0-.56-.07-.6-.27-.11-.44.45-.36.56-.6.42-.83-1.31-.83-1.72-.55-1,.55-1.2,2.77-.79,3.76.34.84,1.46,1.27,2.1,1.71.34.27,1,1.31.71,1.78s-1.08-.08-1.46.44-.6,1.47-.11,1.86c.22.2.64,0,.56.48s-.56.31-.78.43a1,1,0,0,0-.75,1.23c.3,1,1.19-.24,1.72-.44.86-.35,1.54.28,2.32.16.45,0,.53-.39.83-.55s.6,0,.9-.12c.75-.2.33-.83.75-1.43.19-.27.56-.27.6-.67s-.34-.75-.6-.95-.68-.32-.94-.6a5.72,5.72,0,0,1-.75-1.19c-.41-.63-1.57-1.22-1.68-2.06-.16-1,.82-.63,1.12-1.27.64-1.3-1.35-1.11-1.87-1.11"/><path class="cls-2" d="M154.5,45.44c-.71.31-.63,1-1.38,1.14s-1.28,0-1.28,1c0,.59.79.87.6,1.42s-1.05.36-.9,1.23c.26,1.63,2.25-.08,2.92-.24s1.17,0,1.54-.67-.11-1.11.08-1.71c.3-.87.93-.91.22-1.82s-1-.75-1.8-.39"/><path class="cls-2" d="M171.93,65.65c-1.05,0-.94.83-1,1.66s-.11,1.59,1,1.55,1.2-.75,1.2-1.74c0-.8,0-1.55-1-1.47"/><path class="cls-2" d="M171.71,63.39c-1.17.16-.19,1.78.75,1.23.67-.44,0-1.47-.68-1.27"/><path class="cls-2" d="M178.12,69.89c-.64,0-2.33-.43-2.25.64,0,.51.3.55.71.71s.45.28.83.68c1.49,1.74,2.13-2.26.67-2.07"/><path class="cls-2" d="M199.82,74.29c-.42,0-1,0-1.13.52-.15.79.71.55,1.16.67s.91.55,1-.28c.11-.63-.45-.71-.9-.87"/><path class="cls-2" d="M259.72,112.54c-1.24,0-.76,2.06-.83,2.86,0,.55-.26,1,.11,1.42a1.2,1.2,0,0,0,1.28.44,3.91,3.91,0,0,0,1.12-1c.49-.52.38-1,.08-1.55s-.9-2.18-1.76-2.26"/><path class="cls-2" d="M284.68,122.73a11.31,11.31,0,0,1-1.91-1.94c-.38-.52-.64-1.23-1-1.71-.53-.67-3.23-1.27-3.68-.4-.6,1.24,1.61,2,2.22,2.51a6.7,6.7,0,0,1,2.28,3c.3,1.11-.33,1.74.41,2.77a31.91,31.91,0,0,1,2.4,3.21,13.62,13.62,0,0,0,2.63,3.41c.41.35,1.38,1.15,2,.95s.79-1.11.79-1.74c0-.91.41-2.66-.08-3.41s-1.65-.63-2.1-1.43,0-1.66-.71-2.42c-.94-1-2.1-1.62-3-2.57l-.26-.28"/><path class="cls-2" d="M297.08,135.69c-.71-.12-1,.4-1.76.4a6.92,6.92,0,0,1-2.17-.92c-.64-.27-1.12-.51-1.76-.15-.34.2-1.05.75-.94,1.22.19.72,1.61.72,2.14,1a4.54,4.54,0,0,0,2.51.39c.86,0,1.24.6,2,.87a17,17,0,0,0,3.19.36c.56.08,2.36.4,2.1-.71-.19-.79-1.31-.48-1.76-.91-.27-.24-.27-.76-.53-1a2.45,2.45,0,0,0-1.31-.32c-.49,0-1.16.27-1.54-.28"/><path class="cls-2" d="M305.89,117.54c-.6-.28-1.08-1.07-1.69-1.27-.89-.32-1.23,1-1.6,1.67-.68,1.22-2,1.5-2.93,2.45-.68.63-1.05,1.46-1.76,2.1-.52.4-.94.8-1.61.71-.87-.11-1.09-.31-1.5.68a3.15,3.15,0,0,0,0,3c.33.48.9.76,1.16,1.23s.11,1,.22,1.55c.19,1.18.9.83,1.65,1.1.41.17.68.6,1.05.76.56.23.6,0,1-.16.57-.28.83-.16,1.43.24s1.31,1,2,.35.49-1.7.49-2.49a2,2,0,0,1,.86-2,1.74,1.74,0,0,0,.9-1.38c.11-.8.11-.8.75-1.07.41-.16.49,0,.6-.6a2.57,2.57,0,0,0-.3-1.46c-.38-.92-1.27-2-.6-3,.38-.52,1.24-.68,1.16-1.51s-.78-.6-1.31-.83"/><path class="cls-2" d="M294.16,97.16c-.79-.2-1.84-.47-1.87.64,0,1,.63,1.39,1.5,1.39a1.63,1.63,0,0,0,1.38-1,.89.89,0,0,0-1-1"/><path class="cls-2" d="M306.91,89.15c-1.13-.23-.94,1.08-1.39,1.67-.34.4-.87.32-.64,1,.11.4.64.68.9,1s.49.82,1.09.47.37-1.15.41-1.71c.07-1.07.53-1.42-.23-2.34"/><path class="cls-2" d="M320.92,65.49c-.74-.08-.78.8-.56,1.31.34.75.71,1.07.71,1.94a3.92,3.92,0,0,1-.41,2.26c-.45.67-1.39.75-1.8,1.47s0,1-1,1.19a10,10,0,0,1-2,.27,1.68,1.68,0,0,0-1.64,1.51c0,.24.07.72-.08.91-.19.36-.41.08-.67.24a1.28,1.28,0,0,0-.42,1.62c.38.72,1.17.72,1.54,1.47s.82,1.19,1.27.16c.38-.83-.26-2.18.87-2.57.3-.12.63,0,.93-.12s.38-.72.64-1.12c.64-1,1.09,0,1.8.2A1.07,1.07,0,0,0,321,76a11.72,11.72,0,0,1,2-1.12,1.38,1.38,0,0,0,1.08-1.42,12.4,12.4,0,0,0-.33-2.58,10.47,10.47,0,0,1-.34-1.18c-.11-.64,0-1.27-.08-1.91a3.89,3.89,0,0,0-2.4-2.34"/><path class="cls-2" d="M320.51,60.46c-.67-.32-2.14-1.39-2,.12.08.71.61,1.27,0,1.86-.3.28-.71.12-.67.75s.6.76,1,1,.64.51,1.09.31c.26-.16.34-.59.6-.71.67-.28,1.16.71,1.84.31.22-.16.3-.55.52-.75s.56-.12.75-.32a1,1,0,0,0-.08-1.5c-.59-.79-1.08-.4-1.83-.6-.41-.12-.68-.47-1.13-.51"/><path class="cls-2" d="M314.06,49c-.3-.27-2.06-2.14-2.36-1.23-.11.44.71,1,1,1.23a5.51,5.51,0,0,1,.79,1.11,7.28,7.28,0,0,1,.89,2.86c.11,1,.94,1.54,1.35,2.41s.53,2,1.28,2.5,1.2.16,1.23-.67c0-1-.67-1.19-1-1.94s.08-1.47-.22-2.1-1.2-.8-1.58-1.39-.15-1.15-.37-1.71a3.49,3.49,0,0,0-1-1.11"/><path class="cls-2" d="M149,30.69c-.63-.16-1.27.32-1.91.28a19.61,19.61,0,0,0-2.21.28c-1,.07-2.1-1.67-3-.12-.49.87.34.59.79.91.6.43,0,.87.15,1.5.22,1.07,1.5.72,2.21.72s1.12.83,1.8.39c.37-.23.56-.71,1-.95a6.35,6.35,0,0,1,1.43-.39,4,4,0,0,0,1.95-1.11c.67-1.07-1.32-2.14-2.18-1.55"/><path class="cls-2" d="M221.22,144.69c-1.57,0-2,3.8-3.6,4.6-.9.39-1.57.16-2.4.79a2.78,2.78,0,0,0-1.2,2.77c0,1.43.31,2.7-.37,3.89s-1.42,2-1.05,3.57c.52,2.38,1.8,5.23,4.27,3.09a3,3,0,0,0,1.13-2,10.56,10.56,0,0,1,1.5-3.1c1-1.74.52-4,1.2-5.86a17.52,17.52,0,0,1,1.05-3.09c.45-.8,1.05-.32,1-1.67-.08-.87-.38-3-1.27-3.09"/><path class="cls-2" d="M333.82,129.86c1.87.72,3.75.24,5.17,2,.67,1,.75,1.9,1.87,2.45a7.58,7.58,0,0,1,1.35.72,1.37,1.37,0,0,1-.22,2.32l-.08,0c.62.77,4.73,4,3.3,4.52-.37.15-.82-.48-1.2-.56s-.75.4-1.05.31c-1.12,0-1.64-1-2.17-2s-.9-2.14-2.25-2.06-1.58,2-2.7,2.38a6.19,6.19,0,0,1-1.72,0c-.6-.24-.53-.71-.9-1-1.2-1.11-2.18.56-3.15,0-1.35-.79.75-1.58,1-2.14.53-1.27-.75-2.14-1.5-2.69a9.24,9.24,0,0,0-3.29-1.67c-1.05-.24-2.18.32-2.48-.71-.45-1.67,1.05-1.11,1.43-1.75.52-.95-1.88-.39-2.4-1-1.5-1.58,1.87-2.85,3-1.66,1.34,1.42-.23,5.94,2.69,2.54,1.95-2.15,3.15-1.27,5.25,0"/><path class="cls-2" d="M335.32,142.71c-1.65.87-1.95,4.59-2.4,6.26-.23,1-.6,2.46-1.65,2.69-1.43.32-2.32-1.19-3.23-2s-1.94-1.34-1.42-2.69c.3-.79,1.72-1.59,1.57-2.54-.22-1.19-2.17-.4-3-.63s-1.5-1.35-2.4-.64c-.3.24.07.87-.23,1.11s-.6,0-.9.08c-1,.24-1.2,0-1.87,1.19s-.9,3.89-2.62,2.46c-.68-.56-.38-1.11-1.35-1.27s-1.58.55-2.1,1.11-1.13.95-1.65,1.43a13.16,13.16,0,0,0-1,2.14c-2-1.83-2,1.74-3.07,3a3.25,3.25,0,0,1-2.78,1.27c-1.49.08-1.94,1-3.29,1.19-2,.16-2.4-.24-3.15,1.74-.37,1-1.28,1.82-1.65,2.86a13.82,13.82,0,0,0,0,1.82,4.63,4.63,0,0,1-.68,1.35c-.82,1.42-.14,1.82.16,3.4.14,1-.08,2.14.07,3.18.07.71.75,1.74.6,2.53-.3,1.19-2.1,1-2.25,2.62-.22,3.25,4.95.08,6.15.16s2.1.63,3.22.24c1.35-.4,2-1.43,3.53-1.75,3.14-.71,5.47-4,8.91-1.9a15.85,15.85,0,0,1,1.8,1.42c.68.64.3.88.46,1.67.59,2.54,1.64-.4,2.92.4.37.31.6,2.85.75,3.41.22,1.42-.68,2.45.9,2.93a22.6,22.6,0,0,0,2.32.16c.23,0,.6.24.83.16s.45-.56.59-.56c1.13-.24,2,.64,3.23,0a8.11,8.11,0,0,1,1.42-.79c.75-.16,1.2.16,2-.24,1.95-1,.83-2.54,2.18-3.8.52-.56,1.65-.8,2-1.51s-.15-1.11.45-1.83c1.05-1.34,2-1.18,2.63-2.85,1-2.77,3.14-4.28,3-7.61-.07-2-1.2-2.22-1.87-3.8-.23-.48-.08-1.11-.3-1.51-.38-.79-.82-.79-1.2-1.74a8.15,8.15,0,0,0-.45-1.83c-.38-.63-1.13-1-1.57-1.58-1.05-1.19-.68-2.62-.83-4.2a7.25,7.25,0,0,0-.3-2.15c-.37-.63-1.27-.55-1.65-1.18-.52-.88.38-3.26-.52-3.49"/><path class="cls-2" d="M327.07,186.39c-.75,0-1.2-.79-1.87-.16-.38.39-.16,1.51-.3,2.06-.3,1-1.5,3,.6,2.06.37-.16.67-.63,1-.79s.9,0,1.2-.16a5,5,0,0,0,1.28-1.9c.67-1.75-.46-1-1.65-1"/><path class="cls-2" d="M358,180.36c-1-.31.44-3.09-1.2-3.17-1.28-.08-.53,3.49-.75,4.2-.45,1.51-2.48,1.19-2.85,2.46-.23,1,.67.79.82,1.51.08.55-.45.95-.45,1.5,2.33.88,2.33-2.3,4.2-2.85.75-.24,2.47-.56,2.25-1.9-.15-.72-.9-.56-1.42-.56,0-.47,0-1-.38-1.19"/><path class="cls-2" d="M351.21,186.55c-2.55-1-3,2.38-4.95,3.41-1.2.63-2.32.15-3.6,1-1,.79-2.17,1.5-3.22,2.22-1.27.71-1.43,1.19.08,1.34a3.54,3.54,0,0,0,3.44-1.11,10.51,10.51,0,0,1,1.73-1.5c.67-.48,1-.32,1.65-.48,1.12-.24,1.79-1.11,2.84-1.66.53-.32,4.28-2.94,2.18-3.25"/><path class="cls-2" d="M308.93,104.42c.22-1.75,1.12-2.78.45-4.29-.38-.79-.23-1.11-1.05-1.26a1.21,1.21,0,0,0-1.5.95c-.15.63.38,1.27.08,2-.31.87-1.05,1.11-.61,2.14a8.16,8.16,0,0,0,1.88,1.75c.75.23,1.57-.16.82-1"/><path class="cls-2" d="M313.88,124c-1.2,1-2.78,0-4.05.39-.83.32-2.92,2.46-1.05,2.15.75-.17.9-1,1.8-1,1.05.08,1.5,1,2.7.56a6.47,6.47,0,0,0,1.5-1c.37-.64.15-1.91-.75-1.19"/><path class="cls-2" d="M309,130.34c1.2-.08.53,2.3,1.73,2.62,1.87.55.67-1.75.45-2.38a4.36,4.36,0,0,1-.15-1.43c.15-.48,1.05-.79.9-1.35s-1.05-.39-1.35-.39c-.6,0-.83.39-1.58,0l-.15-.08c-1-.16-1.12,1.66-1.42,2.3s-.83.63-.68,1.42c.08.32.76.8.9,1.27.16.64,0,3.33,1.05,1.75.6-1,.23-2.78.3-3.73"/><path class="cls-2" d="M315.52,112.26c-1.27-.55-.74.56-1.34,1s-1.35.07-2,.23c-.52.16-2.1,1.11-1.5,1.83s1.73-.56,2.55.47c.6.72.15,1.35,1.13,1.83s1.05.08,1.35-.8a11.55,11.55,0,0,1,.37-1.19c.08-.55.23-.47.15-1.1a13.13,13.13,0,0,0-.52-1.35c-.08-.48.67-.64-.08-1"/><path class="cls-2" d="M315.52,138.11c-.89,0-1.42,1.82-.22,1.9s1.95-2.14.3-1.9"/><path class="cls-2" d="M316.87,130.58c-1,.23-1.27.95-.3,1.34,1.35.56,1.51-1.19.53-1.42"/><path class="cls-2" d="M313.2,140c-.9-.4-1.87,1.27-1.42,1.67,1,.63,2.47-.48,1.57-1.51"/><path class="cls-2" d="M312.15,110c-.6-.08-2.32,2.29-.82,2.37,1.12,0,2.32-1.82.82-2.45"/><path class="cls-2" d="M311.55,105.45c-1.27-.8-1.35,1.1-.07,1.58,1.87.79,1.35-1.5.15-1.42"/><path class="cls-2" d="M305,138.51c-.59-.16-1.19.08-1.19.79-.08.95.6.55,1.12.55.68.08,1.12.56,1.28-.39.07-.79-.6-1-1.28-1"/><path class="cls-2" d="M347.46,132.56c-1,.32-1.2,1.43-2.25,1.74-.75.24-2.4.48-.75,1.12a5.55,5.55,0,0,0,2.78-.09c.67-.55,1.42-2.53.29-2.77"/><path class="cls-2" d="M133.06,12.06a40.14,40.14,0,0,1-4.35.47,12.68,12.68,0,0,0-5.17.4c-1.27.4-2.47.16-3.75.4-1.5.24-2.32,1.27-3.52,1.9-1.42.71-8.39-.24-7.87,2.38.67,3.57,7.65-.56,8.85,1.9.37.87-.38,2.7-.23,3.73.15.87-.37.55.37,1,.53.31,1.36-.24,1.73.55s-.37.4-.68.72c-.52.47-.37.16-.74.95-.31.63.07.71-.53,1.27-.38.39-1.12.47-1.5,1-1.57,1.9-.45,5.71.53,7.61.67,1.27,1.42.79,2.69,1.34.6.24.68,1,1.65.72.68-.16,1-.87,1.43-1.51a2.77,2.77,0,0,1,.82-1.43c.53-.39,1-.23,1.58-.79.82-.95.75-2.3,2-3s2.18-.08,3.45-.08c1.12-.08,1.95-1.11,2.92-1.58s1.5-1.35,2.4-1.83,2,.16,3-.08a26.19,26.19,0,0,0,3.15-1c.75-.24,1.5-.39,1.8-1.27-.3-.15-1.5-.39-1.58-.63-.3-.64.38-.95.83-.95.75,0,1.65,1.9,2.25.71s-1.8-1.9-1-2.77c.53-.48,2.18-.08,2.93-.56a5.53,5.53,0,0,0,1.35-1.58c.37-.64.3-1.35.59-1.83s1-.47,1.13-.87c.3-.63-.3-.95-.08-1.5.68-1.51,6.08-1.35,6.23-2.62.07-1.59-4.2-.64-4.95-.64-1.73-.08-2.7-1.26-4.43-1.42-2.77-.16-5.62.16-8.31.16a16.72,16.72,0,0,0-4.88.63"/><path class="cls-2" d="M114.62,12c-2,.24-3.6,1-5.7.63S105,11.74,103,12.3c-1.12.31-3.07-.08-4,.39-2,1.11,1,1,1.42,1.27,1.58,1.27-1.8,2.54-2.7,2.62-1.42.16-2.7-.08-3.52,1.19-.3.39.07.71-.3,1s-1.42.08-1.87-.08c-.9-.32-1.65-1.19-2.4.08s.45,1.5,1.35,1.66c1.42.24,2.1.8,3.52.56.82-.16,2.85,0,3.38-.87,1-1.43-1.13-1-1.88-1.19.15-1.83,3.6-.64,4.72-.95s2.18-1.27,3.3-1.75c2.25-1,4.5-1,6.82-1.43,1-.23,2-.79,3.15-1s2.1,0,3.07-.39c1.28-.48,1.2-1.27-.14-1.59a11.19,11.19,0,0,0-2.33.08"/><path class="cls-2" d="M99.1,23.56a10.6,10.6,0,0,1-2.7,0c-.67-.16-.89-.72-1.42-1-1-.64-1.73-.32-2.77.31-.3.24-1,.95-1.43.87-.82-.23,0-.63-.07-1.11-.23-.63.15-.63-.68-.79-.67-.16-1.2.32-1.65.72C87.71,23,86.51,24,86.51,25c.07,1.75,2.32.87,3.37.72,1.65-.24,4.05-.56,5.47.55.83.63,1.88,1.58,1.58,2.77a8,8,0,0,1-1.65,2.7c-1.2.55-3-.71-4.12-.08-1.65,1,1,1.35,1.72,1.35,1.73.08,2.25.32,3.07,1.82.38.8.23,1.11,1.28,1.43.3.08,1.2.24,1.42,0,.83-.72-1.35-2.78.75-2.38.9.08,1.58,1.51,2.63.48,1.57-1.43-1.28-2.22-1-3.41.3-1.51,2.47-.24,2.92.24.68.63.68,1.18,1.8.39a2.83,2.83,0,0,0,1.2-2.38c-.3-1.18-1.28-.95-2.1-1.18-2.7-.64.45-2.23-1.42-3.81-.6-.48-3.83-1.35-4.2-.63"/><path class="cls-2" d="M95.81,13.49c-.76.16-1.13.63-1.73.87s-1.42-.08-1.8.16c-2.17,1.19,1.35,1.58,2.18,1.42.67-.07,3.67.16,4-.47s-2-2.54-2.55-2"/><path class="cls-2" d="M84.34,31.48c-.83,0-.75.48-1.13.87-.07.16-1,1.19-1,1.27-.45,1.67,1.35.48,2,.4s2.62,1,2.4-.79c-.15-.88-1.43-2.38-2.25-1.83"/><path class="cls-2" d="M77.29,18.88c-1.2-.32-1.5.47-2.47.79-1.43.4-1.21-.71-2-1.27-1.42-.95-6.3,1.27-3.82,2.14,1.2.4,2.77-.32,4.12-.08a4.63,4.63,0,0,0,2.55.32c.45-.08,2.4-.24,2.7-.56.82-.87-.53-1.34-1.2-1.34"/><path class="cls-2" d="M84.56,18.16a2.79,2.79,0,0,0-2.25.72c-.82.47-1.8.71-.45,1.27A5.44,5.44,0,0,0,84.34,20c-.23.16.67-1.27.6-1C85,18.4,85,18,84.26,18"/><path class="cls-2" d="M81.26,21.34c-1.72-.64-2,.47-3.15,1-.6.23-1.12-.24-1.35.63-.15.71.45.87.9,1.19,1.35,1,1.35.16,2.63-.63.45-.24,1-.08,1.35-.48s.52-1.35-.15-1.59"/><path class="cls-2" d="M86,15.31c-.38,0-2-.32-2.18-.08-.6.48.38,1.59.83,1.74a2.15,2.15,0,0,0,1.94-.31c.53-.56.53-1.43-.37-1.43"/><path class="cls-2" d="M86.58,21.18c-1.42,0-1.64,0-2.62.87-.45.32-1.8,1.11-.53,1.58a13.17,13.17,0,0,0,2.78-.79c.6-.31,1.35-1.43.22-1.66"/><path class="cls-2" d="M97.83,21.41c-1.35.4-.45,1.75.6,1.27s.82-1.58-.38-1.34"/><path class="cls-2" d="M89.28,15.94c-1.65.08-.37,1.91.75,1.19s.38-1.58-.6-1.26"/><path class="cls-2" d="M87.56,17.85c-.38.55-.23,1.66.6,1.11s.07-1.51-.75-1"/><path class="cls-2" d="M86,19.43c-.83.64.14,1.27.67.87a.57.57,0,0,0-.45-1"/><path class="cls-2" d="M77.44,16.18c-1.35-.16-2.48.87-.83,1.35,1.13.32,2.63-1.11,1-1.27"/><path class="cls-2" d="M80.29,18a1,1,0,0,0-.38.79c.75.32,1.65-.79.6-.95"/><path class="cls-2" d="M67.77,17.53c-1.58-.08-3.15,1.27-1,1.19a3.46,3.46,0,0,0,1.58-.24c.6-.47.37-1.35-.53-1"/><path class="cls-2" d="M74.07,22.29a1.77,1.77,0,0,0-1.88.31c-1,.72-.45.64-1.72.4-.75-.16-1.5,0-2.33-.16-.6-.16-1-.63-1.65-.79-1-.16-1.5.71-2.32,1s-1.57-.08-2.25.24c-.9.39-1,.79-.15,1.58.68.56,1.8.24,2.62,1.11-.44.24-5.39-.71-3.14,1.11a5.56,5.56,0,0,0,3.22.71c1.27-.39,1.72-1.66,3.3-1.5,1.12.16,1.87,1,3,1A12,12,0,0,0,74,26.73c1.2-1.11-.45-1.35-.52-2.07-.08-.95,2-1.18.82-2.37"/><path class="cls-2" d="M76.61,26.17c-1.27.16-1.57,1.59-.07,1.59,1.35,0,1.95-1.91.3-1.59"/><path class="cls-2" d="M63.34,20.15a3.17,3.17,0,0,0-2.92.71c-1.2.79-2.62.32-3.75,1.11C55.1,23,56.3,24,57.8,23.79c1-.16,2-.87,2.92-1a33.72,33.72,0,0,0,4.2-1c.82-.24,2.32-.32,1-1.27-.82-.47-1.72.08-2.47-.39"/><path class="cls-2" d="M70.69,96c-2-1.67-4.12-3.5-6.67-3.89a8.33,8.33,0,0,0-3.45.16c-1.2.39-1.72,1.35-.07,1.42,1.42.08,1.87-.15,3.3.48,1.64.64,2.09.64,3,2.06.75,1.11,1,.64,2.25.71.45,0,2.55.88,1.95-.55,0-.16-.22-.32-.3-.39"/><path class="cls-2" d="M74.51,97.2c-.52-.08-1.42-.39-1.87,0-.3.32-.08.8-.3,1.11s-.75.24-1,.48c-1.35,1.42,2.1,1,3.07,1,.75,0,3.82-.32,3.3-1.74-.38-1-2.62-.48-3.3-.88"/><path class="cls-2" d="M308.48,106.72c-1.27-.32-1.05,1-.08,1.26,1.28.32,1.28-1.26.16-1.26"/><path class="cls-2" d="M313.8,108.06c-1,.09-.67,1.19.08,1.19s.82-1.43-.08-1.35"/><path class="cls-2" d="M318.3,124.23c-1.27.08-.52,1.59.22,1.51,1.05-.16.45-1.35-.15-1.58"/><path class="cls-2" d="M308.33,138.9c-1.28.32-.3,2,.6,1.35a.76.76,0,0,0-.53-1.43"/><path class="cls-2" d="M356.76,152.7c-1.5-.4-1.43,1.66-.23,1.9s2-2.06.3-1.9"/><path class="cls-2" d="M102.55,51.3c-.82.32-1,1.19-1.57,1.82A16,16,0,0,1,98.43,55c-2.85,2.38,2.85,1,3.82,1.42.83.24,1.13,1.27,2,1.11,1.42-.31.52-1,.37-1.58s-.3-.32-.22-.95c0-.4.67-.56.52-1.11-.22-1.27-1.27-.4-1.87-.08-.6-.72,1.27-2.22-.23-2.54"/><path class="cls-3" d="M326.59,73.27c0,.4-1.88.72-4.2.72s-4.19-.32-4.19-.72,1.88-.72,4.19-.72S326.59,72.87,326.59,73.27Z"/><path class="cls-4" d="M327.09,65.1c0,3.34-3.51,7-4.46,7.88a.33.33,0,0,1-.47,0c-1-.92-4.46-4.54-4.46-7.88a4.7,4.7,0,0,1,9.39,0Z"/><path class="cls-5" d="M325.64,65.1a3.25,3.25,0,1,1-3.25-3.24A3.25,3.25,0,0,1,325.64,65.1Z"/><path class="cls-6" d="M324.32,64.84l.43-.39-.24-.58-.58,0-.35-.35,0-.58-.58-.24-.39.43h-.49l-.39-.43-.58.24,0,.58-.35.35-.58,0-.24.58.43.39v.49l-.43.4.24.57.58,0,.35.35,0,.59.58.23.39-.43h.49l.39.43.58-.23,0-.59.35-.35.58,0,.24-.57-.43-.4Zm-1.93,1.78a1.54,1.54,0,1,1,1.54-1.53A1.54,1.54,0,0,1,322.39,66.62Z"/><circle class="cls-6" cx="322.39" cy="65.09" r="1.14"/><path class="cls-7" d="M313,89.6c0,.4-1.88.72-4.19.72s-4.2-.32-4.2-.72,1.88-.72,4.2-.72S313,89.2,313,89.6Z"/><path class="cls-8" d="M313.51,81.44c0,3.34-3.5,7-4.46,7.87a.33.33,0,0,1-.47,0c-.95-.92-4.46-4.53-4.46-7.87a4.7,4.7,0,1,1,9.39,0Z"/><path class="cls-9" d="M312.06,81.44a3.24,3.24,0,1,1-3.24-3.24A3.24,3.24,0,0,1,312.06,81.44Z"/><path class="cls-6" d="M310.74,81.18l.43-.4-.23-.57-.59,0-.35-.35,0-.59-.57-.24-.4.44h-.49l-.39-.44-.58.24,0,.59-.35.35-.58,0-.24.57.44.4v.49l-.44.39.24.58.58,0,.35.34,0,.59.58.24.39-.44h.49l.4.44.57-.24,0-.59.35-.34.59,0,.23-.58-.43-.39ZM308.82,83a1.53,1.53,0,1,1,1.53-1.53A1.53,1.53,0,0,1,308.82,83Z"/><circle class="cls-6" cx="308.82" cy="81.42" r="1.14"/><path class="cls-10" d="M300.74,77.31c0,.4-1.88.72-4.2.72s-4.19-.32-4.19-.72,1.88-.72,4.19-.72S300.74,76.91,300.74,77.31Z"/><path class="cls-11" d="M301.24,69.15c0,3.34-3.51,6.95-4.46,7.87a.33.33,0,0,1-.47,0c-1-.92-4.46-4.53-4.46-7.87a4.7,4.7,0,1,1,9.39,0Z"/><path class="cls-12" d="M299.78,69.15a3.24,3.24,0,1,1-3.24-3.24A3.24,3.24,0,0,1,299.78,69.15Z"/><path class="cls-6" d="M298.46,68.88l.44-.39-.24-.57-.58,0-.35-.35,0-.59-.58-.24-.39.44h-.49l-.4-.44-.57.24,0,.59L295,68l-.59,0-.24.57.44.39v.5l-.44.39.24.58.59,0,.35.34,0,.59.57.24.4-.44h.49l.39.44.58-.24,0-.59.35-.34.58,0,.24-.58-.44-.39Zm-1.92,1.78a1.53,1.53,0,1,1,1.54-1.53A1.53,1.53,0,0,1,296.54,70.66Z"/><circle class="cls-6" cx="296.54" cy="69.13" r="1.14"/><path class="cls-13" d="M71.21,64.33c0,.4-1.88.72-4.2.72s-4.19-.32-4.19-.72,1.88-.72,4.19-.72S71.21,63.93,71.21,64.33Z"/><path class="cls-14" d="M71.71,56.16c0,3.34-3.51,7-4.46,7.88a.33.33,0,0,1-.47,0c-1-.92-4.46-4.54-4.46-7.88a4.7,4.7,0,0,1,9.39,0Z"/><path class="cls-15" d="M70.26,56.16A3.25,3.25,0,1,1,67,52.92,3.25,3.25,0,0,1,70.26,56.16Z"/><path class="cls-6" d="M68.94,55.9l.43-.39-.24-.58-.58,0-.35-.35,0-.58-.58-.24-.39.43h-.49l-.4-.43L65.8,54l0,.58-.35.35-.59,0-.23.58.43.39v.49l-.43.4.23.57.59,0,.35.35,0,.59.57.23.4-.43h.49l.39.43.58-.23,0-.59.35-.35.58,0,.24-.57-.43-.4ZM67,57.68a1.54,1.54,0,1,1,1.54-1.53A1.54,1.54,0,0,1,67,57.68Z"/><circle class="cls-6" cx="67.01" cy="56.15" r="1.14"/><path class="cls-16" d="M33.71,75.75c0,.4-1.88.72-4.19.72s-4.2-.32-4.2-.72S27.2,75,29.52,75,33.71,75.35,33.71,75.75Z"/><path class="cls-17" d="M34.21,67.59c0,3.34-3.51,7-4.46,7.87a.33.33,0,0,1-.47,0c-1-.92-4.46-4.53-4.46-7.87a4.7,4.7,0,1,1,9.39,0Z"/><path class="cls-18" d="M32.76,67.59a3.25,3.25,0,1,1-3.24-3.24A3.24,3.24,0,0,1,32.76,67.59Z"/><path class="cls-6" d="M31.44,67.33l.43-.4-.23-.57-.59,0L30.7,66l0-.59-.57-.24-.4.44h-.49l-.39-.44-.58.24,0,.59-.35.35-.58,0-.24.57.43.4v.49l-.43.39.24.58.58,0,.35.34,0,.59.58.24.39-.44h.49l.4.44.57-.24,0-.59.35-.34.59,0,.23-.58-.43-.39ZM29.52,69.1a1.53,1.53,0,1,1,1.53-1.53A1.53,1.53,0,0,1,29.52,69.1Z"/><circle class="cls-6" cx="29.52" cy="67.57" r="1.14"/><line class="cls-19" x1="322.55" y1="56.76" x2="322.55" y2="18.25"/><circle class="cls-20" cx="322.55" cy="56.72" r="0.94"/><rect class="cls-20" x="301.55" width="42" height="22" rx="11"/><text class="cls-21" transform="translate(309.65 15)">臺灣</text><line class="cls-19" x1="296.55" y1="62.1" x2="296.55" y2="31"/><circle class="cls-20" cx="296.55" cy="62.05" r="0.94"/><rect class="cls-20" x="275.55" y="23.83" width="42" height="22" rx="11"/><text class="cls-21" transform="translate(283.65 38.83)">中國</text><line class="cls-19" x1="308.88" y1="92.23" x2="308.88" y2="130.74"/><circle class="cls-20" cx="308.88" cy="92.27" r="0.94"/><rect class="cls-20" x="287.88" y="112.08" width="42" height="22" rx="11"/><text class="cls-21" transform="translate(295.98 127.08)">日本</text><line class="cls-19" x1="67.22" y1="49.27" x2="67.22" y2="18.25"/><circle class="cls-20" cx="67.22" cy="49.23" r="0.94"/><rect class="cls-20" x="46.22" width="42" height="22" rx="11"/><text class="cls-21" transform="translate(54.32 15)">美國</text><polyline class="cls-19" points="29.33 60.27 29.33 39.17 67.17 39.17"/><circle class="cls-20" cx="29.33" cy="60.23" r="0.94"/></g></g></g></svg>