<svg xmlns="http://www.w3.org/2000/svg" viewBox="0 0 380 380"><defs><style>.cls-1{fill:none;stroke:#323e48;stroke-miterlimit:10;stroke-width:0.5px;}.cls-2{fill:#9bc9a9;}.cls-3{fill:#007934;}</style></defs><g id="圖層_2" data-name="圖層 2"><g id="文字內容"><line class="cls-1" x1="175.68" y1="353.67" x2="177.43" y2="333.72"/><line class="cls-1" x1="202.57" y1="46.28" x2="204.32" y2="26.33"/><line class="cls-1" x1="161.47" y1="351.8" x2="164.95" y2="332.08"/><line class="cls-1" x1="215.05" y1="47.92" x2="218.53" y2="28.2"/><line class="cls-1" x1="147.48" y1="348.7" x2="152.66" y2="329.36"/><line class="cls-1" x1="227.34" y1="50.64" x2="232.52" y2="31.3"/><line class="cls-1" x1="133.81" y1="344.39" x2="140.66" y2="325.57"/><line class="cls-1" x1="239.34" y1="54.43" x2="246.19" y2="35.61"/><line class="cls-1" x1="120.56" y1="338.91" x2="129.03" y2="320.75"/><line class="cls-1" x1="250.97" y1="59.25" x2="259.44" y2="41.09"/><line class="cls-1" x1="107.85" y1="332.29" x2="117.86" y2="314.94"/><line class="cls-1" x1="262.14" y1="65.06" x2="272.15" y2="47.71"/><line class="cls-1" x1="95.76" y1="324.59" x2="107.25" y2="308.18"/><line class="cls-1" x1="272.75" y1="71.82" x2="284.24" y2="55.41"/><line class="cls-1" x1="84.39" y1="315.86" x2="97.26" y2="300.52"/><line class="cls-1" x1="282.74" y1="79.48" x2="295.61" y2="64.14"/><line class="cls-1" x1="73.82" y1="306.18" x2="87.98" y2="292.02"/><line class="cls-1" x1="292.02" y1="87.98" x2="306.18" y2="73.82"/><line class="cls-1" x1="64.14" y1="295.61" x2="79.48" y2="282.74"/><line class="cls-1" x1="300.52" y1="97.26" x2="315.86" y2="84.39"/><line class="cls-1" x1="55.41" y1="284.24" x2="71.82" y2="272.75"/><line class="cls-1" x1="308.18" y1="107.25" x2="324.59" y2="95.76"/><line class="cls-1" x1="47.71" y1="272.15" x2="65.06" y2="262.14"/><line class="cls-1" x1="314.94" y1="117.86" x2="332.29" y2="107.85"/><line class="cls-1" x1="41.09" y1="259.44" x2="59.25" y2="250.97"/><line class="cls-1" x1="320.75" y1="129.03" x2="338.91" y2="120.56"/><line class="cls-1" x1="35.61" y1="246.19" x2="54.43" y2="239.34"/><line class="cls-1" x1="325.57" y1="140.66" x2="344.39" y2="133.81"/><line class="cls-1" x1="31.3" y1="232.52" x2="50.64" y2="227.34"/><line class="cls-1" x1="329.36" y1="152.66" x2="348.7" y2="147.48"/><line class="cls-1" x1="28.2" y1="218.53" x2="47.92" y2="215.05"/><line class="cls-1" x1="332.08" y1="164.95" x2="351.8" y2="161.47"/><line class="cls-1" x1="26.33" y1="204.32" x2="46.28" y2="202.57"/><line class="cls-1" x1="333.72" y1="177.43" x2="353.67" y2="175.68"/><line class="cls-1" x1="25.7" y1="190" x2="45.73" y2="190"/><line class="cls-1" x1="334.27" y1="190" x2="354.3" y2="190"/><line class="cls-1" x1="26.33" y1="175.68" x2="46.28" y2="177.43"/><line class="cls-1" x1="333.72" y1="202.57" x2="353.67" y2="204.32"/><line class="cls-1" x1="28.2" y1="161.47" x2="47.92" y2="164.95"/><line class="cls-1" x1="332.08" y1="215.05" x2="351.8" y2="218.53"/><line class="cls-1" x1="31.3" y1="147.48" x2="50.64" y2="152.66"/><line class="cls-1" x1="329.36" y1="227.34" x2="348.7" y2="232.52"/><line class="cls-1" x1="35.61" y1="133.81" x2="54.43" y2="140.66"/><line class="cls-1" x1="325.57" y1="239.34" x2="344.39" y2="246.19"/><line class="cls-1" x1="41.09" y1="120.56" x2="59.25" y2="129.03"/><line class="cls-1" x1="320.75" y1="250.97" x2="338.91" y2="259.44"/><line class="cls-1" x1="47.71" y1="107.85" x2="65.06" y2="117.86"/><line class="cls-1" x1="314.94" y1="262.14" x2="332.29" y2="272.15"/><line class="cls-1" x1="55.41" y1="95.76" x2="71.82" y2="107.25"/><line class="cls-1" x1="308.18" y1="272.75" x2="324.59" y2="284.24"/><line class="cls-1" x1="64.14" y1="84.39" x2="79.48" y2="97.26"/><line class="cls-1" x1="300.52" y1="282.74" x2="315.86" y2="295.61"/><line class="cls-1" x1="73.82" y1="73.82" x2="87.98" y2="87.98"/><line class="cls-1" x1="292.02" y1="292.02" x2="306.18" y2="306.18"/><line class="cls-1" x1="84.39" y1="64.14" x2="97.26" y2="79.48"/><line class="cls-1" x1="282.74" y1="300.52" x2="295.61" y2="315.86"/><line class="cls-1" x1="95.76" y1="55.41" x2="107.25" y2="71.82"/><line class="cls-1" x1="272.75" y1="308.18" x2="284.24" y2="324.59"/><line class="cls-1" x1="107.85" y1="47.71" x2="117.86" y2="65.06"/><line class="cls-1" x1="262.14" y1="314.94" x2="272.15" y2="332.29"/><line class="cls-1" x1="120.56" y1="41.09" x2="129.03" y2="59.25"/><line class="cls-1" x1="250.97" y1="320.75" x2="259.44" y2="338.91"/><line class="cls-1" x1="133.81" y1="35.61" x2="140.66" y2="54.43"/><line class="cls-1" x1="239.34" y1="325.57" x2="246.19" y2="344.39"/><line class="cls-1" x1="147.48" y1="31.3" x2="152.66" y2="50.64"/><line class="cls-1" x1="227.34" y1="329.36" x2="232.52" y2="348.7"/><line class="cls-1" x1="161.47" y1="28.2" x2="164.95" y2="47.92"/><line class="cls-1" x1="215.05" y1="332.08" x2="218.53" y2="351.8"/><line class="cls-1" x1="175.68" y1="26.33" x2="177.43" y2="46.28"/><line class="cls-1" x1="202.57" y1="333.72" x2="204.32" y2="353.67"/><line class="cls-1" x1="190" y1="25.7" x2="190" y2="45.73"/><line class="cls-1" x1="190" y1="334.27" x2="190" y2="354.3"/><path class="cls-2" d="M363.86,190c0,95.86-78,173.86-173.86,173.86S16.14,285.86,16.14,190H0C0,294.77,85.23,380,190,380s190-85.23,190-190H363.86Z"/><path class="cls-3" d="M16.14,190c0-95.87,78-173.86,173.86-173.86S363.86,94.13,363.86,190H380C380,85.23,294.77,0,190,0S0,85.23,0,190H16.14Z"/></g></g></svg>