<svg xmlns="http://www.w3.org/2000/svg" viewBox="0 0 253.25 108.42"><defs><style>.cls-1{isolation:isolate;}.cls-2{opacity:0.8;mix-blend-mode:multiply;}.cls-3{fill:#323e48;}.cls-4{fill:#adb0b0;}</style></defs><g class="cls-1"><g id="圖層_2" data-name="圖層 2"><g id="圖層_1-2" data-name="圖層 1"><g class="cls-2"><path class="cls-3" d="M48,11.75l-.64,3.49-17.84,2-.29,1.57,14.11-1.56-.6,3.3L9.4,24.22l.6-3.3,13.69-1.51L24,17.83,6.55,19.76l.63-3.49,17.43-1.93L25.05,12l5.53-.61-.44,2.39ZM23.33,51.14l17.57-2L40.2,53,0,57.47l.7-3.82,17.1-1.9.28-1.53L5.45,51.62l.61-3.34,12.63-1.4.25-1.39C11,46.56,9.61,46.85,8.54,47.3c0-.74-.28-2.45-.47-3.41A12.75,12.75,0,0,0,10.58,43,34.35,34.35,0,0,0,14,41.27L7.7,42l.15-.81-4.79.53,1.29-7.12,39.74-4.4L42.8,37.28l-5.17.57.65-3.58L8.59,37.56l-.25,1.38,29.51-3.27-.55,3L34,39.05a27.31,27.31,0,0,1,4.44,3.11L35,45.07l2.72-.3-.61,3.34-13.51,1.5ZM41.05,22.07l-1.32,7.22L9.49,32.64l1.31-7.22Zm-5.9,3.37-19.83,2.2L15,29.31l19.82-2.2ZM19.92,40.61c-1.18.79-2.31,1.52-3.42,2.16l12.67-1.59c-.78-.43-1.57-.81-2.23-1.16l.26-.22Zm4.3,5.65,10.33-1.14a23.26,23.26,0,0,0-1.76-1.54L24.5,44.74Z"/><path class="cls-3" d="M57.15,29.88a21.29,21.29,0,0,0-5.75-4.13l3.72-4.3a20.31,20.31,0,0,1,6.05,3.73Zm3-12.36c-1-1.44-3.46-3.32-5.49-4.54l3.83-4.17a21.83,21.83,0,0,1,5.8,4.08ZM48.06,49.8c2.34-3.91,5.79-10.19,8.5-15.92l3.81,2.39c-2.4,5.27-5.29,11-7.94,15.81ZM64.47,25.65a29.94,29.94,0,0,1-3,6.62,10.26,10.26,0,0,0-2-1.43A21.9,21.9,0,0,0,62,25.28Zm6.08-2.59c0-.42-.07-.88-.15-1.43-6,1.5-7.21,1.92-8,2.34a12.09,12.09,0,0,0-.64-2.23,6.07,6.07,0,0,0,2.47-1.86,39.92,39.92,0,0,0,2.86-3.31,14.24,14.24,0,0,0-3.71,1,9.45,9.45,0,0,0-.7-2.13A3.61,3.61,0,0,0,64.43,14a35.19,35.19,0,0,0,3.88-6.42l2.75.77a36.66,36.66,0,0,1-3.81,5.53l2.09-.33c.55-.76,1-1.52,1.5-2.27l2.56,1.07a61.66,61.66,0,0,1-6.2,7.53l2.68-.58c-.11-.41-.26-.82-.38-1.18L72,17a25.39,25.39,0,0,1,1.11,4.79ZM89.84,38.43a16.85,16.85,0,0,1-.64,2c-1.44,3.9-2.65,6.1-4.09,7.29a9.08,9.08,0,0,1-4.51,1.71c-1.53.22-4.29.48-7.13.7a7.83,7.83,0,0,0-.72-4c2.67,0,5.75-.31,6.86-.44a3.78,3.78,0,0,0,2-.6,7.11,7.11,0,0,0,1.79-2.63L60.12,45.1c1.15-2.33,2.52-5.67,3.56-8.4l19.69-2.19L83.65,33,62.58,35.32l.57-3.15,26.14-2.9-1.43,7.88L67.43,39.42,66.79,41ZM64.86,31A24.93,24.93,0,0,0,65,25.55l2.46-.88a20.4,20.4,0,0,1,0,5.24ZM69,29.46a18.59,18.59,0,0,0-.31-5L71,23.39a18.28,18.28,0,0,1,.49,4.77ZM84.73,12.88l-11,1.22.54-3,4.34-.48a17.39,17.39,0,0,0-.77-3.24l3.74-1.17a23.52,23.52,0,0,1,1,3.5l-1.93.68,4.65-.51ZM73.41,22.75l8.8-1-1.3,7.12-8.8,1Zm9.71-5.95-8.76,1,.47-2.58,8.76-1Zm-.67,3.68-8.76,1,.47-2.58,8.76-1ZM75.74,27l2.31-.26.38-2.1-2.3.26Zm10.48-4a27.52,27.52,0,0,1-3,6.56,9.07,9.07,0,0,0-1.91-1.43,20.72,20.72,0,0,0,2.5-5.56Zm6.12-2.32c0-.42-.11-.92-.19-1.48-6,1.47-7.25,1.88-8.06,2.35a7.77,7.77,0,0,0-.63-2.23,5.75,5.75,0,0,0,2.47-1.91c.49-.47,1.62-1.72,2.84-3.21a20.85,20.85,0,0,0-3.74,1,11.5,11.5,0,0,0-.6-2.18,4,4,0,0,0,1.71-1.45,30.94,30.94,0,0,0,3.93-6.43L92.81,6A48,48,0,0,1,89,11.52l2.13-.33c.5-.76,1-1.52,1.46-2.27l2.57,1A66.34,66.34,0,0,1,89,17.47l2.63-.58c-.1-.41-.21-.82-.33-1.18l2.42-1.11a22.92,22.92,0,0,1,1.14,4.88Zm-5.9,8.33a28.82,28.82,0,0,0,.16-5.87l2.48-.93a25.37,25.37,0,0,1,0,5.67ZM92.74,21a23.33,23.33,0,0,1,.61,5.59l-2.5,1.36a23.76,23.76,0,0,0-.47-5.85Z"/><path class="cls-3" d="M144.62,5.77l-8,.89a18.63,18.63,0,0,1,2.63,2.66l-3.86,3.37,3.78-.42L137,24.36,122.37,26l-.51,2.82,16.87-1.87s-.3,1.39-.51,2.07c-1.62,6.4-2.74,9.57-4.16,11A6.69,6.69,0,0,1,130.25,42a47.48,47.48,0,0,1-5.87.74,9.85,9.85,0,0,0-.58-5,36.37,36.37,0,0,0,4.66-.33,2.7,2.7,0,0,0,1.65-.6c.55-.53,1.15-1.86,1.91-4.52l-11,1.22-2.15,11.8-5.4.6,1.7-9.32A61.31,61.31,0,0,1,99.47,47.29a13.92,13.92,0,0,0-2.64-4.11,57.75,57.75,0,0,0,14.67-8.6l-9.91,1.1a129.51,129.51,0,0,0,3.93-12.42l12.31-1.36.5-2.73-14,1.56.85-4.69,9.41-1a24.22,24.22,0,0,0-3.44-3.92l2-1.77-2.72.3a56.54,56.54,0,0,1-5.83,6.68,22.62,22.62,0,0,0-3-3.41A41.2,41.2,0,0,0,110.14,2.1l4.58.9a20.88,20.88,0,0,1-1.18,2l10.15-1.12-.8,4.35L116.3,9a18.17,18.17,0,0,1,2.56,2.8l-3.46,3.15,19.45-2.16A23.22,23.22,0,0,0,131.16,9l2.3-2-3.78.42a38.17,38.17,0,0,1-4.44,5,16.54,16.54,0,0,0-3.5-2.84A32.36,32.36,0,0,0,129.14,0l4.74.74c-.35.69-.76,1.44-1.16,2.14L145.4,1.47ZM117,26.58l-7.52.83c-.31,1-.58,1.94-.88,2.86l7.88-.87Zm15.91-9-9.17,1-.5,2.72,9.18-1Z"/><path class="cls-3" d="M190.92,12l-1.12,6.16-42.32,4.69,1.12-6.16Z"/><path class="cls-4" d="M89.71,84.71l-1,5.49,12-1.33-.88,4.87-12,1.34-1.06,5.82,17-1.88-.92,5.07-39.1,4.33.92-5.06,16.42-1.82,1.06-5.83L70.21,97l.89-4.88L83,90.84l1-5.5-9.69,1.07.73-4c-2.24,1.6-4.49,3.07-6.61,4.29A15.1,15.1,0,0,0,66,82.42a79,79,0,0,0,17.11-12.1L77,71l1-5.26L93.66,64c2.92,5.58,9.24,10.82,16.48,13a41.35,41.35,0,0,0-4.75,5.49,33.11,33.11,0,0,1-5.27-2.79l-.73,4Zm9.16-5.88a37.64,37.64,0,0,1-9.11-9.25A97.85,97.85,0,0,1,76.65,81.29Z"/><path class="cls-4" d="M157.49,72.47c-3,3.52-6.54,7.37-9.29,10.06a17,17,0,0,0,6.8,9.08,18.56,18.56,0,0,0-4.15,4.67A20.37,20.37,0,0,1,144,86.93l-1.38,7.6c-.52,2.86-1.35,4.41-3.12,5.49s-4.14,1.63-7.55,2a20.36,20.36,0,0,0-.85-5.29c2.2-.15,4.37-.39,5.07-.52a1.16,1.16,0,0,0,1.19-1.06l1.42-7.84c-3.82,3.61-7.74,7.27-11.08,10.26l-1.81-3.73c-5,2.11-10.31,4.28-14.51,6l-.17-5.27q2.55-.91,5.82-2.19l2.1-11.51-4.61.51,1-5.21,4.61-.51,1.53-8.41-4.84.54,1-5.31,14.62-1.62-1,5.31-4.65.51-1.54,8.41,4-.44-.95,5.21-4,.44-1.82,10,5-2-.06,3c3.42-2.62,8.13-6.42,12.56-10.14L142,69.79,131.38,71l1-5.2,10.6-1.18,1.39-7.64,5.26-.59L148.19,64l6.27-.7a22.51,22.51,0,0,0-4-3.95l3.51-3.2a18.09,18.09,0,0,1,4.67,4.12l-3.1,2.92,4-.44-.94,5.2-11.3,1.26-.35,1.91a53.28,53.28,0,0,0,.37,6.88,92.94,92.94,0,0,0,6-7.58Zm-22,.1a26.18,26.18,0,0,1,2.89,7.91l-4.86,2.65A28.49,28.49,0,0,0,130.92,75Z"/><path class="cls-4" d="M168.81,70.56c-1.17,1.25-2.34,2.46-3.54,3.58a18,18,0,0,0-2.07-4.74A58.46,58.46,0,0,0,176.34,53L180,55.24c-.46.8-1,1.7-1.46,2.54a46.15,46.15,0,0,1,6,7.3L181,70c-.34-.62-.83-1.41-1.36-2.19L178.89,72l-10.56,1.17Zm13.35,6.11a81,81,0,0,1-9.38,13.77,28.46,28.46,0,0,1,2.39,3L171,97.29a48.11,48.11,0,0,0-7.69-8.89L167.18,85c.82.71,1.76,1.54,2.63,2.43a64.06,64.06,0,0,0,5.58-7.32l-12.12,1.35.85-4.68,14.38-1.6.83-.32Zm-2.85-9.43c-1.11-1.6-2.47-3.33-3.84-4.95-1.51,2.08-3,4-4.55,5.88Zm10.59,22a50.31,50.31,0,0,1-11,7.64,25.9,25.9,0,0,0-2.78-3.3,41.18,41.18,0,0,0,10-6.91ZM201.24,85l-20,2.21,4.6-25.27,6.59-.73c.38-1.07.72-2.19,1.05-3.25l-8.63.95.87-4.78,22.78-2.52-.87,4.78-8.35.92c-.52,1.14-1,2.27-1.5,3.31l8-.89ZM200,64.48,190,65.6l-.53,3,10.05-1.11Zm-1.25,6.88L188.7,72.48l-.56,3.1,10.05-1.11Zm-1.26,6.93L187.44,79.4l-.57,3.11,10.06-1.11Zm-1.43,7.6a38.9,38.9,0,0,1,6.31,5.29l-4.82,3.63a35.67,35.67,0,0,0-6-5.66Z"/><path class="cls-4" d="M243.4,83.69c1.38-.15,1.82-1.09,3-6.75A10.94,10.94,0,0,0,251,78.68c-1.93,7.61-3.78,9.83-8.07,10.3l-5.3.59c-5.16.57-6-1.06-5.06-6.46l2.12-11.61-6.73.75c-2.57,8.61-6.21,16-17.58,21.32a12.21,12.21,0,0,0-2.49-4.64c9.74-4.12,12.46-9.66,14.3-16.05l-10.88,1.21,1-5.49,17.66-2,1.41-7.74-7.93.88a51.4,51.4,0,0,1-4.73,6.89,25.56,25.56,0,0,0-4.39-2c3.71-4.25,7-10.94,8.9-15.92l5.42.53c-.68,1.52-1.42,3.1-2.23,4.78l6-.66L233.55,47l5.57-.61L238,52.84l14.11-1.57-1,5.45L237,58.28,235.55,66l17.7-2-1,5.49-12,1.34L238.1,82.5c-.28,1.57-.1,1.79,1.33,1.63Z"/></g></g></g></g></svg>