<svg xmlns="http://www.w3.org/2000/svg" xmlns:xlink="http://www.w3.org/1999/xlink" viewBox="0 0 1278.29 142.34"><defs><style>.cls-1{fill:none;}.cls-2{fill:#adb0b0;}.cls-3{fill:#fff;}.cls-4{clip-path:url(#clip-path);}.cls-5{fill:#cfd0d1;}</style><clipPath id="clip-path" transform="translate(-0.85 -34.82)"><rect class="cls-1" width="1280" height="105"/></clipPath></defs><g id="圖層_2" data-name="圖層 2"><g id="BG"><path class="cls-2" d="M133.6,43.67V54.62h-58v5h45.9V69.92H13V59.57H57.55v-5H.85V43.67h56.7v-7.5h18v7.5Zm-58,117.45H132.7v12H1.9v-12H57.55v-4.8H16.45v-10.5h41.1v-4.35c-25.65.6-30.15,1.05-33.45,2.1-.6-2.4-2.4-7.95-3.6-11.1a34.84,34.84,0,0,0,7.8-1.95,85.47,85.47,0,0,0,10.2-4.35H18.1v-2.55H2.5V101.27H131.8v22.35H115V112.37H18.4v4.35h96v9.45H103.75a141.53,141.53,0,0,1,16.65,11.55l-9.75,8.1h8.85v10.5H75.55ZM116.8,74.27V96.92H18.4V74.27ZM99.25,83H34.75v5.25h64.5Zm-41.4,43.2c-3.45,2.1-6.75,4-10.05,5.7l41.1-.6c-2.85-1.65-5.7-3.15-8.1-4.5l.75-.6Zm17.7,19.65h33.6c-1.8-1.65-4.2-3.6-6.75-5.55L75.55,141Z" transform="translate(-0.85 -34.82)"/><path class="cls-2" d="M175,105c-4.35-4.5-14.1-11.25-21.6-15.3l9.75-12.45c7.65,3.6,17.4,9.45,22.35,14.1Zm2.55-38.55c-4.05-4.95-13.5-11.85-21-16.5l10.2-12c7.35,4.05,17.1,10.35,21.75,15.15Zm-20.7,99.15a457.69,457.69,0,0,0,18.6-48l14.1,9c-4.8,16-11,33.3-16.8,47.85Zm39.9-71.55c-1.2,7.35-3.45,15.15-6.15,20.1a50.41,50.41,0,0,0-7.35-5.25c2.7-4.8,4.05-11,4.95-17Zm18.6-6.15A47.78,47.78,0,0,0,214,83.27c-18.9,2.7-22.8,3.6-25.2,4.65a51.58,51.58,0,0,0-3.45-7.35c2.4-.3,4.35-2.25,7.05-5.1a76.6,76.6,0,0,0,7.5-9.6c-7.65.75-10.2,1.2-11.7,1.95a39.27,39.27,0,0,0-3.6-7c2-.3,3.45-1.8,5-4.05a74.68,74.68,0,0,0,9-19.2l9.6,3.45a77.54,77.54,0,0,1-9.3,16.35l6.75-.3a73.73,73.73,0,0,0,3.6-6.75l9.15,4.35a127.81,127.81,0,0,1-16,21.9l8.55-.9c-.6-1.35-1.35-2.7-1.95-3.9l7.5-2.7A101.65,101.65,0,0,1,223,84.77ZM288.7,144a40.1,40.1,0,0,1-.9,6.3c-2.4,12-5.1,18.6-9.15,21.9-3.9,2.85-7.95,3.6-13.95,3.9-4.95.15-13.95,0-23.25-.3a30.16,30.16,0,0,0-4.8-13c8.85.9,18.9,1,22.5,1,3.15,0,5-.15,6.45-1.2,1.65-1.2,3-3.6,4.35-7.8h-75.9a253.74,253.74,0,0,0,6.75-25.65h64.05v-4.8H196.3v-9.9h85.05v24.75H214.9l-1.2,4.8Zm-87.45-32.7a80.51,80.51,0,0,0-2.85-17.4l7.65-2a67,67,0,0,1,3.15,16.8Zm12.9-3.45c-.3-4.35-2.1-11-4.05-16.05l6.9-2.7a66.81,66.81,0,0,1,4.5,15.45ZM256.3,60.32H220.45V51h14.1a73,73,0,0,0-4.5-10.65l11.7-2.4a96.38,96.38,0,0,1,5.4,11.55l-6,1.5H256.3Zm-31.65,27.6H253.3v22.35H224.65Zm28.65-15.6H224.8v-8.1h28.5Zm0,11.55H224.8v-8.1h28.5ZM235,102.47h7.5v-6.6H235Zm32.4-9c-1.2,7.35-3.3,15-6.15,20a44.5,44.5,0,0,0-7.2-5.25c2.7-4.65,4.05-10.8,4.95-17Zm18.9-5.25c-.3-1.35-.9-3-1.5-4.8-19.05,2.55-22.95,3.45-25.35,4.65A32,32,0,0,0,256,80.72c2.4-.45,4.5-2.1,7.05-5.25a94.12,94.12,0,0,0,7.5-9.3c-7.5.75-10.2,1.2-11.85,1.8a48.19,48.19,0,0,0-3.3-7.2c1.8-.3,3.15-1.8,4.8-4.05,1.65-1.95,6.9-10.95,9.15-19.2l9.6,3.6a100.18,100.18,0,0,1-9.45,16.35l6.9-.3c1.2-2.25,2.4-4.5,3.45-6.75l9.15,4a136.33,136.33,0,0,1-15.9,22l8.4-.9c-.6-1.35-1.2-2.7-1.8-3.9l7.35-2.7c2.55,5.1,5.7,11.7,6.75,16Zm-14.55,24.6a93,93,0,0,0-3-18.75L276.4,92a82,82,0,0,1,3.3,18.15Zm16.05-23.7c2.4,5.85,4.8,13.5,5.4,18.15l-7.5,3.45a82.93,82.93,0,0,0-5.1-18.9Z" transform="translate(-0.85 -34.82)"/><path class="cls-2" d="M450.85,58.82h-26a96,96,0,0,1,10.35,9.45l-10.8,9.45h12.3v38H389.2v8.85h54.9s-.15,4.35-.45,6.45c-1.5,19.95-3.3,29.7-7.2,33.6-3.15,3.6-6.75,4.8-11.4,5.25a147.18,147.18,0,0,1-19.05.3c-.3-5.25-2.1-11.85-4.95-16.2a124.53,124.53,0,0,0,15.3.6c2.25,0,3.75-.15,5.1-1.35,1.5-1.5,2.7-5.55,3.6-13.8H389.2v37H371.65V147.17a135.57,135.57,0,0,1-45.6,28.65,68.39,68.39,0,0,0-11.25-14.1c15.6-4.65,31.8-12.9,43.5-22.35H326.05A327.45,327.45,0,0,0,331.6,101h40V92.42h-45.6V77.72h30.6c-3.3-4.2-9.15-9.75-13.8-13.8l5.7-5H339.7a117.67,117.67,0,0,1-15.3,19.35,113.26,113.26,0,0,0-12-12,85.89,85.89,0,0,0,21.75-31.5l15.75,4.5a52.79,52.79,0,0,1-2.7,6h33V59H358.75a93.41,93.41,0,0,1,10.2,9.9l-9.6,8.85h63.3c-3.3-4-9.75-9.45-14.55-13.35l6.45-5.55h-12.3a78.7,78.7,0,0,1-11.7,14.55A83.33,83.33,0,0,0,377.2,63c8.25-7.05,15-17.55,18.75-28.2l16.2,4c-.75,2.1-1.65,4.35-2.55,6.45h41.25Zm-79.2,56.85H347.2c-.45,3-.75,6-1.2,8.85h25.65Zm47.4-23.25H389.2V101h29.85Z" transform="translate(-0.85 -34.82)"/><path class="cls-2" d="M608.35,95.12v19.35H470.65V95.12Z" transform="translate(-0.85 -34.82)"/><path class="cls-2" d="M747.25,105.92v17.25H786.4v15.3H747.25v18.3h55.2v15.9H675.25v-15.9h53.4v-18.3H690v-15.3h38.7V105.92h-31.5V93.47a175.61,175.61,0,0,1-19.35,11.4,70.38,70.38,0,0,0-10.65-14.7c16.8-6.9,35.4-19.35,49.5-32.7H696.7V41h51.15c13,18.9,37.2,38,62.55,47.4A87.06,87.06,0,0,0,798,104.27a161.14,161.14,0,0,1-19.2-10.8v12.45Zm26.85-15.6a189.87,189.87,0,0,1-35.85-32.85C728.5,69,715.45,80.57,701.8,90.32Z" transform="translate(-0.85 -34.82)"/><path class="cls-2" d="M964.9,90.77a338.06,338.06,0,0,1-24.75,29c6.45,12.9,15.3,22.5,28.05,31.5a38.52,38.52,0,0,0-11,13.5c-12.6-9.6-21.45-19.8-28.35-32.4v23.85c0,9-1.8,13.65-7,16.5-5.1,3-12.75,3.75-23.85,3.75-.75-4.8-3.75-12.45-6-17.25,7.2.3,14.25.3,16.5.15,2.25,0,3.3-.75,3.3-3v-24.6c-10.5,10.2-21.3,20.55-30.6,28.95L873,148.07c-15.45,5-31.65,10.05-44.55,14.1l-3.75-16.95q7.88-2,18-4.95V104.12h-15V87.77h15V61.37H826.9V44.72h47.55V61.37H859.3v26.4h12.9v16.35H859.3v31.35l15.3-4.65,1.65,9.75c9.75-7.2,23.1-17.7,35.55-28V76.67H877.3V60.32h34.5v-24h17.1v24h20.4a111.67,111.67,0,0,0-15.75-14.1l9.75-9c6.3,3.9,14.1,10.35,18,14.85l-8.55,8.25h12.9V76.67H928.9v6a185.42,185.42,0,0,0,5.4,22.2,195.21,195.21,0,0,0,15.15-22.2ZM892,83.27c5.7,8.25,12.15,18.9,14.4,26.4l-14.55,6.75c-2.1-7.2-8.1-18.6-13.65-27Z" transform="translate(-0.85 -34.82)"/><path class="cls-2" d="M1001.35,88.67c-3.15,3.6-6.3,7-9.6,10.2A79.45,79.45,0,0,0,982,83c12.6-10.5,26.55-28.65,33.75-47.85l13.35,8.4c-1,2.4-2.25,5.1-3.3,7.65,9.15,8.55,19.35,18.75,24.3,25.5l-8.55,14.4c-1.5-2.1-3.6-4.8-5.85-7.5V96.92h-34.35Zm48,24.3a170.62,170.62,0,0,1-22.8,40.8c3.75,3.75,7,7.2,9.75,10.5l-11.7,10.8c-6.6-8.7-20.4-22.35-30.9-31.2l10.95-9.6c3.15,2.55,6.75,5.55,10.2,8.7a135.93,135.93,0,0,0,14.1-21.45H989.5v-14.7h46.8l2.55-.75Zm-15.15-31.2c-4.65-5.55-10.2-11.55-15.75-17.25-3.75,6.15-7.5,11.85-11.55,17.25ZM1082.65,156a110.17,110.17,0,0,1-32,20.55A134.41,134.41,0,0,0,1039.45,165c10.65-4.2,23-12.15,29-18.6Zm35.1-9.6h-65V67.07h21.45c.6-3.3,1-6.75,1.5-10h-28V42h74.1V57h-27.15c-1.05,3.45-2,6.9-3,10h26.1Zm-16.5-66.15h-32.7v9.3h32.7Zm0,21.6h-32.7v9.75h32.7Zm0,21.75h-32.7v9.75h32.7Zm-.15,23.85c7.8,5.55,18.75,13.5,24.15,19.2l-13.8,9.9c-4.8-5.55-15.3-14.25-23.25-20.25Z" transform="translate(-0.85 -34.82)"/><path class="cls-2" d="M1257,157.22c4.5,0,5.4-2.85,6-20.55,3.6,3,11.4,6,16.2,7.2-1.8,23.7-6.6,30.15-20.55,30.15h-17.25c-16.8,0-20.7-5.55-20.7-22.5V115.07h-21.9c-3.3,26.7-11,49.05-45.45,62.1a56.69,56.69,0,0,0-11.1-15.75c29.85-9.75,35.55-26.55,37.8-46.35h-35.4V97.82h57.45V73.52h-25.8a108.65,108.65,0,0,1-11.55,20.4,118.08,118.08,0,0,0-15.75-7.8c9.75-12.3,16.8-32.55,20-47.85l18.3,3.6c-1.35,4.65-2.85,9.45-4.5,14.55h19.35V36.17h18.15V56.42h45.9v17.1h-45.9v24.3h57.6v17.25h-39.15v36.45c0,4.95.75,5.7,5.4,5.7Z" transform="translate(-0.85 -34.82)"/><path class="cls-3" d="M133.6,43.67V54.62h-58v5h45.9V69.92H13V59.57H57.55v-5H.85V43.67h56.7v-7.5h18v7.5Zm-58,117.45H132.7v12H1.9v-12H57.55v-4.8H16.45v-10.5h41.1v-4.35c-25.65.6-30.15,1.05-33.45,2.1-.6-2.4-2.4-7.95-3.6-11.1a34.84,34.84,0,0,0,7.8-1.95,85.47,85.47,0,0,0,10.2-4.35H18.1v-2.55H2.5V101.27H131.8v22.35H115V112.37H18.4v4.35h96v9.45H103.75a141.53,141.53,0,0,1,16.65,11.55l-9.75,8.1h8.85v10.5H75.55ZM116.8,74.27V96.92H18.4V74.27ZM99.25,83H34.75v5.25h64.5Zm-41.4,43.2c-3.45,2.1-6.75,4-10.05,5.7l41.1-.6c-2.85-1.65-5.7-3.15-8.1-4.5l.75-.6Zm17.7,19.65h33.6c-1.8-1.65-4.2-3.6-6.75-5.55L75.55,141Z" transform="translate(-0.85 -34.82)"/><path class="cls-3" d="M175,105c-4.35-4.5-14.1-11.25-21.6-15.3l9.75-12.45c7.65,3.6,17.4,9.45,22.35,14.1Zm2.55-38.55c-4.05-4.95-13.5-11.85-21-16.5l10.2-12c7.35,4.05,17.1,10.35,21.75,15.15Zm-20.7,99.15a457.69,457.69,0,0,0,18.6-48l14.1,9c-4.8,16-11,33.3-16.8,47.85Zm39.9-71.55c-1.2,7.35-3.45,15.15-6.15,20.1a50.41,50.41,0,0,0-7.35-5.25c2.7-4.8,4.05-11,4.95-17Zm18.6-6.15A47.78,47.78,0,0,0,214,83.27c-18.9,2.7-22.8,3.6-25.2,4.65a51.58,51.58,0,0,0-3.45-7.35c2.4-.3,4.35-2.25,7.05-5.1a76.6,76.6,0,0,0,7.5-9.6c-7.65.75-10.2,1.2-11.7,1.95a39.27,39.27,0,0,0-3.6-7c2-.3,3.45-1.8,5-4.05a74.68,74.68,0,0,0,9-19.2l9.6,3.45a77.54,77.54,0,0,1-9.3,16.35l6.75-.3a73.73,73.73,0,0,0,3.6-6.75l9.15,4.35a127.81,127.81,0,0,1-16,21.9l8.55-.9c-.6-1.35-1.35-2.7-1.95-3.9l7.5-2.7A101.65,101.65,0,0,1,223,84.77ZM288.7,144a40.1,40.1,0,0,1-.9,6.3c-2.4,12-5.1,18.6-9.15,21.9-3.9,2.85-7.95,3.6-13.95,3.9-4.95.15-13.95,0-23.25-.3a30.16,30.16,0,0,0-4.8-13c8.85.9,18.9,1,22.5,1,3.15,0,5-.15,6.45-1.2,1.65-1.2,3-3.6,4.35-7.8h-75.9a253.74,253.74,0,0,0,6.75-25.65h64.05v-4.8H196.3v-9.9h85.05v24.75H214.9l-1.2,4.8Zm-87.45-32.7a80.51,80.51,0,0,0-2.85-17.4l7.65-2a67,67,0,0,1,3.15,16.8Zm12.9-3.45c-.3-4.35-2.1-11-4.05-16.05l6.9-2.7a66.81,66.81,0,0,1,4.5,15.45ZM256.3,60.32H220.45V51h14.1a73,73,0,0,0-4.5-10.65l11.7-2.4a96.38,96.38,0,0,1,5.4,11.55l-6,1.5H256.3Zm-31.65,27.6H253.3v22.35H224.65Zm28.65-15.6H224.8v-8.1h28.5Zm0,11.55H224.8v-8.1h28.5ZM235,102.47h7.5v-6.6H235Zm32.4-9c-1.2,7.35-3.3,15-6.15,20a44.5,44.5,0,0,0-7.2-5.25c2.7-4.65,4.05-10.8,4.95-17Zm18.9-5.25c-.3-1.35-.9-3-1.5-4.8-19.05,2.55-22.95,3.45-25.35,4.65A32,32,0,0,0,256,80.72c2.4-.45,4.5-2.1,7.05-5.25a94.12,94.12,0,0,0,7.5-9.3c-7.5.75-10.2,1.2-11.85,1.8a48.19,48.19,0,0,0-3.3-7.2c1.8-.3,3.15-1.8,4.8-4.05,1.65-1.95,6.9-10.95,9.15-19.2l9.6,3.6a100.18,100.18,0,0,1-9.45,16.35l6.9-.3c1.2-2.25,2.4-4.5,3.45-6.75l9.15,4a136.33,136.33,0,0,1-15.9,22l8.4-.9c-.6-1.35-1.2-2.7-1.8-3.9l7.35-2.7c2.55,5.1,5.7,11.7,6.75,16Zm-14.55,24.6a93,93,0,0,0-3-18.75L276.4,92a82,82,0,0,1,3.3,18.15Zm16.05-23.7c2.4,5.85,4.8,13.5,5.4,18.15l-7.5,3.45a82.93,82.93,0,0,0-5.1-18.9Z" transform="translate(-0.85 -34.82)"/><path class="cls-3" d="M450.85,58.82h-26a96,96,0,0,1,10.35,9.45l-10.8,9.45h12.3v38H389.2v8.85h54.9s-.15,4.35-.45,6.45c-1.5,19.95-3.3,29.7-7.2,33.6-3.15,3.6-6.75,4.8-11.4,5.25a147.18,147.18,0,0,1-19.05.3c-.3-5.25-2.1-11.85-4.95-16.2a124.53,124.53,0,0,0,15.3.6c2.25,0,3.75-.15,5.1-1.35,1.5-1.5,2.7-5.55,3.6-13.8H389.2v37H371.65V147.17a135.57,135.57,0,0,1-45.6,28.65,68.39,68.39,0,0,0-11.25-14.1c15.6-4.65,31.8-12.9,43.5-22.35H326.05A327.45,327.45,0,0,0,331.6,101h40V92.42h-45.6V77.72h30.6c-3.3-4.2-9.15-9.75-13.8-13.8l5.7-5H339.7a117.67,117.67,0,0,1-15.3,19.35,113.26,113.26,0,0,0-12-12,85.89,85.89,0,0,0,21.75-31.5l15.75,4.5a52.79,52.79,0,0,1-2.7,6h33V59H358.75a93.41,93.41,0,0,1,10.2,9.9l-9.6,8.85h63.3c-3.3-4-9.75-9.45-14.55-13.35l6.45-5.55h-12.3a78.7,78.7,0,0,1-11.7,14.55A83.33,83.33,0,0,0,377.2,63c8.25-7.05,15-17.55,18.75-28.2l16.2,4c-.75,2.1-1.65,4.35-2.55,6.45h41.25Zm-79.2,56.85H347.2c-.45,3-.75,6-1.2,8.85h25.65Zm47.4-23.25H389.2V101h29.85Z" transform="translate(-0.85 -34.82)"/><path class="cls-3" d="M608.35,95.12v19.35H470.65V95.12Z" transform="translate(-0.85 -34.82)"/><path class="cls-3" d="M747.25,105.92v17.25H786.4v15.3H747.25v18.3h55.2v15.9H675.25v-15.9h53.4v-18.3H690v-15.3h38.7V105.92h-31.5V93.47a175.61,175.61,0,0,1-19.35,11.4,70.38,70.38,0,0,0-10.65-14.7c16.8-6.9,35.4-19.35,49.5-32.7H696.7V41h51.15c13,18.9,37.2,38,62.55,47.4A87.06,87.06,0,0,0,798,104.27a161.14,161.14,0,0,1-19.2-10.8v12.45Zm26.85-15.6a189.87,189.87,0,0,1-35.85-32.85C728.5,69,715.45,80.57,701.8,90.32Z" transform="translate(-0.85 -34.82)"/><path class="cls-3" d="M964.9,90.77a338.06,338.06,0,0,1-24.75,29c6.45,12.9,15.3,22.5,28.05,31.5a38.52,38.52,0,0,0-11,13.5c-12.6-9.6-21.45-19.8-28.35-32.4v23.85c0,9-1.8,13.65-7,16.5-5.1,3-12.75,3.75-23.85,3.75-.75-4.8-3.75-12.45-6-17.25,7.2.3,14.25.3,16.5.15,2.25,0,3.3-.75,3.3-3v-24.6c-10.5,10.2-21.3,20.55-30.6,28.95L873,148.07c-15.45,5-31.65,10.05-44.55,14.1l-3.75-16.95q7.88-2,18-4.95V104.12h-15V87.77h15V61.37H826.9V44.72h47.55V61.37H859.3v26.4h12.9v16.35H859.3v31.35l15.3-4.65,1.65,9.75c9.75-7.2,23.1-17.7,35.55-28V76.67H877.3V60.32h34.5v-24h17.1v24h20.4a111.67,111.67,0,0,0-15.75-14.1l9.75-9c6.3,3.9,14.1,10.35,18,14.85l-8.55,8.25h12.9V76.67H928.9v6a185.42,185.42,0,0,0,5.4,22.2,195.21,195.21,0,0,0,15.15-22.2ZM892,83.27c5.7,8.25,12.15,18.9,14.4,26.4l-14.55,6.75c-2.1-7.2-8.1-18.6-13.65-27Z" transform="translate(-0.85 -34.82)"/><path class="cls-3" d="M1001.35,88.67c-3.15,3.6-6.3,7-9.6,10.2A79.45,79.45,0,0,0,982,83c12.6-10.5,26.55-28.65,33.75-47.85l13.35,8.4c-1,2.4-2.25,5.1-3.3,7.65,9.15,8.55,19.35,18.75,24.3,25.5l-8.55,14.4c-1.5-2.1-3.6-4.8-5.85-7.5V96.92h-34.35Zm48,24.3a170.62,170.62,0,0,1-22.8,40.8c3.75,3.75,7,7.2,9.75,10.5l-11.7,10.8c-6.6-8.7-20.4-22.35-30.9-31.2l10.95-9.6c3.15,2.55,6.75,5.55,10.2,8.7a135.93,135.93,0,0,0,14.1-21.45H989.5v-14.7h46.8l2.55-.75Zm-15.15-31.2c-4.65-5.55-10.2-11.55-15.75-17.25-3.75,6.15-7.5,11.85-11.55,17.25ZM1082.65,156a110.17,110.17,0,0,1-32,20.55A134.41,134.41,0,0,0,1039.45,165c10.65-4.2,23-12.15,29-18.6Zm35.1-9.6h-65V67.07h21.45c.6-3.3,1-6.75,1.5-10h-28V42h74.1V57h-27.15c-1.05,3.45-2,6.9-3,10h26.1Zm-16.5-66.15h-32.7v9.3h32.7Zm0,21.6h-32.7v9.75h32.7Zm0,21.75h-32.7v9.75h32.7Zm-.15,23.85c7.8,5.55,18.75,13.5,24.15,19.2l-13.8,9.9c-4.8-5.55-15.3-14.25-23.25-20.25Z" transform="translate(-0.85 -34.82)"/><path class="cls-3" d="M1257,157.22c4.5,0,5.4-2.85,6-20.55,3.6,3,11.4,6,16.2,7.2-1.8,23.7-6.6,30.15-20.55,30.15h-17.25c-16.8,0-20.7-5.55-20.7-22.5V115.07h-21.9c-3.3,26.7-11,49.05-45.45,62.1a56.69,56.69,0,0,0-11.1-15.75c29.85-9.75,35.55-26.55,37.8-46.35h-35.4V97.82h57.45V73.52h-25.8a108.65,108.65,0,0,1-11.55,20.4,118.08,118.08,0,0,0-15.75-7.8c9.75-12.3,16.8-32.55,20-47.85l18.3,3.6c-1.35,4.65-2.85,9.45-4.5,14.55h19.35V36.17h18.15V56.42h45.9v17.1h-45.9v24.3h57.6v17.25h-39.15v36.45c0,4.95.75,5.7,5.4,5.7Z" transform="translate(-0.85 -34.82)"/><g class="cls-4"><path class="cls-2" d="M133.6,43.67V54.62h-58v5h45.9V69.92H13V59.57H57.55v-5H.85V43.67h56.7v-7.5h18v7.5Zm-58,117.45H132.7v12H1.9v-12H57.55v-4.8H16.45v-10.5h41.1v-4.35c-25.65.6-30.15,1.05-33.45,2.1-.6-2.4-2.4-7.95-3.6-11.1a34.84,34.84,0,0,0,7.8-1.95,85.47,85.47,0,0,0,10.2-4.35H18.1v-2.55H2.5V101.27H131.8v22.35H115V112.37H18.4v4.35h96v9.45H103.75a141.53,141.53,0,0,1,16.65,11.55l-9.75,8.1h8.85v10.5H75.55ZM116.8,74.27V96.92H18.4V74.27ZM99.25,83H34.75v5.25h64.5Zm-41.4,43.2c-3.45,2.1-6.75,4-10.05,5.7l41.1-.6c-2.85-1.65-5.7-3.15-8.1-4.5l.75-.6Zm17.7,19.65h33.6c-1.8-1.65-4.2-3.6-6.75-5.55L75.55,141Z" transform="translate(-0.85 -34.82)"/><path class="cls-2" d="M175,105c-4.35-4.5-14.1-11.25-21.6-15.3l9.75-12.45c7.65,3.6,17.4,9.45,22.35,14.1Zm2.55-38.55c-4.05-4.95-13.5-11.85-21-16.5l10.2-12c7.35,4.05,17.1,10.35,21.75,15.15Zm-20.7,99.15a457.69,457.69,0,0,0,18.6-48l14.1,9c-4.8,16-11,33.3-16.8,47.85Zm39.9-71.55c-1.2,7.35-3.45,15.15-6.15,20.1a50.41,50.41,0,0,0-7.35-5.25c2.7-4.8,4.05-11,4.95-17Zm18.6-6.15A47.78,47.78,0,0,0,214,83.27c-18.9,2.7-22.8,3.6-25.2,4.65a51.58,51.58,0,0,0-3.45-7.35c2.4-.3,4.35-2.25,7.05-5.1a76.6,76.6,0,0,0,7.5-9.6c-7.65.75-10.2,1.2-11.7,1.95a39.27,39.27,0,0,0-3.6-7c2-.3,3.45-1.8,5-4.05a74.68,74.68,0,0,0,9-19.2l9.6,3.45a77.54,77.54,0,0,1-9.3,16.35l6.75-.3a73.73,73.73,0,0,0,3.6-6.75l9.15,4.35a127.81,127.81,0,0,1-16,21.9l8.55-.9c-.6-1.35-1.35-2.7-1.95-3.9l7.5-2.7A101.65,101.65,0,0,1,223,84.77ZM288.7,144a40.1,40.1,0,0,1-.9,6.3c-2.4,12-5.1,18.6-9.15,21.9-3.9,2.85-7.95,3.6-13.95,3.9-4.95.15-13.95,0-23.25-.3a30.16,30.16,0,0,0-4.8-13c8.85.9,18.9,1,22.5,1,3.15,0,5-.15,6.45-1.2,1.65-1.2,3-3.6,4.35-7.8h-75.9a253.74,253.74,0,0,0,6.75-25.65h64.05v-4.8H196.3v-9.9h85.05v24.75H214.9l-1.2,4.8Zm-87.45-32.7a80.51,80.51,0,0,0-2.85-17.4l7.65-2a67,67,0,0,1,3.15,16.8Zm12.9-3.45c-.3-4.35-2.1-11-4.05-16.05l6.9-2.7a66.81,66.81,0,0,1,4.5,15.45ZM256.3,60.32H220.45V51h14.1a73,73,0,0,0-4.5-10.65l11.7-2.4a96.38,96.38,0,0,1,5.4,11.55l-6,1.5H256.3Zm-31.65,27.6H253.3v22.35H224.65Zm28.65-15.6H224.8v-8.1h28.5Zm0,11.55H224.8v-8.1h28.5ZM235,102.47h7.5v-6.6H235Zm32.4-9c-1.2,7.35-3.3,15-6.15,20a44.5,44.5,0,0,0-7.2-5.25c2.7-4.65,4.05-10.8,4.95-17Zm18.9-5.25c-.3-1.35-.9-3-1.5-4.8-19.05,2.55-22.95,3.45-25.35,4.65A32,32,0,0,0,256,80.72c2.4-.45,4.5-2.1,7.05-5.25a94.12,94.12,0,0,0,7.5-9.3c-7.5.75-10.2,1.2-11.85,1.8a48.19,48.19,0,0,0-3.3-7.2c1.8-.3,3.15-1.8,4.8-4.05,1.65-1.95,6.9-10.95,9.15-19.2l9.6,3.6a100.18,100.18,0,0,1-9.45,16.35l6.9-.3c1.2-2.25,2.4-4.5,3.45-6.75l9.15,4a136.33,136.33,0,0,1-15.9,22l8.4-.9c-.6-1.35-1.2-2.7-1.8-3.9l7.35-2.7c2.55,5.1,5.7,11.7,6.75,16Zm-14.55,24.6a93,93,0,0,0-3-18.75L276.4,92a82,82,0,0,1,3.3,18.15Zm16.05-23.7c2.4,5.85,4.8,13.5,5.4,18.15l-7.5,3.45a82.93,82.93,0,0,0-5.1-18.9Z" transform="translate(-0.85 -34.82)"/><path class="cls-2" d="M450.85,58.82h-26a96,96,0,0,1,10.35,9.45l-10.8,9.45h12.3v38H389.2v8.85h54.9s-.15,4.35-.45,6.45c-1.5,19.95-3.3,29.7-7.2,33.6-3.15,3.6-6.75,4.8-11.4,5.25a147.18,147.18,0,0,1-19.05.3c-.3-5.25-2.1-11.85-4.95-16.2a124.53,124.53,0,0,0,15.3.6c2.25,0,3.75-.15,5.1-1.35,1.5-1.5,2.7-5.55,3.6-13.8H389.2v37H371.65V147.17a135.57,135.57,0,0,1-45.6,28.65,68.39,68.39,0,0,0-11.25-14.1c15.6-4.65,31.8-12.9,43.5-22.35H326.05A327.45,327.45,0,0,0,331.6,101h40V92.42h-45.6V77.72h30.6c-3.3-4.2-9.15-9.75-13.8-13.8l5.7-5H339.7a117.67,117.67,0,0,1-15.3,19.35,113.26,113.26,0,0,0-12-12,85.89,85.89,0,0,0,21.75-31.5l15.75,4.5a52.79,52.79,0,0,1-2.7,6h33V59H358.75a93.41,93.41,0,0,1,10.2,9.9l-9.6,8.85h63.3c-3.3-4-9.75-9.45-14.55-13.35l6.45-5.55h-12.3a78.7,78.7,0,0,1-11.7,14.55A83.33,83.33,0,0,0,377.2,63c8.25-7.05,15-17.55,18.75-28.2l16.2,4c-.75,2.1-1.65,4.35-2.55,6.45h41.25Zm-79.2,56.85H347.2c-.45,3-.75,6-1.2,8.85h25.65Zm47.4-23.25H389.2V101h29.85Z" transform="translate(-0.85 -34.82)"/><path class="cls-2" d="M608.35,95.12v19.35H470.65V95.12Z" transform="translate(-0.85 -34.82)"/><path class="cls-2" d="M747.25,105.92v17.25H786.4v15.3H747.25v18.3h55.2v15.9H675.25v-15.9h53.4v-18.3H690v-15.3h38.7V105.92h-31.5V93.47a175.61,175.61,0,0,1-19.35,11.4,70.38,70.38,0,0,0-10.65-14.7c16.8-6.9,35.4-19.35,49.5-32.7H696.7V41h51.15c13,18.9,37.2,38,62.55,47.4A87.06,87.06,0,0,0,798,104.27a161.14,161.14,0,0,1-19.2-10.8v12.45Zm26.85-15.6a189.87,189.87,0,0,1-35.85-32.85C728.5,69,715.45,80.57,701.8,90.32Z" transform="translate(-0.85 -34.82)"/><path class="cls-2" d="M964.9,90.77a338.06,338.06,0,0,1-24.75,29c6.45,12.9,15.3,22.5,28.05,31.5a38.52,38.52,0,0,0-11,13.5c-12.6-9.6-21.45-19.8-28.35-32.4v23.85c0,9-1.8,13.65-7,16.5-5.1,3-12.75,3.75-23.85,3.75-.75-4.8-3.75-12.45-6-17.25,7.2.3,14.25.3,16.5.15,2.25,0,3.3-.75,3.3-3v-24.6c-10.5,10.2-21.3,20.55-30.6,28.95L873,148.07c-15.45,5-31.65,10.05-44.55,14.1l-3.75-16.95q7.88-2,18-4.95V104.12h-15V87.77h15V61.37H826.9V44.72h47.55V61.37H859.3v26.4h12.9v16.35H859.3v31.35l15.3-4.65,1.65,9.75c9.75-7.2,23.1-17.7,35.55-28V76.67H877.3V60.32h34.5v-24h17.1v24h20.4a111.67,111.67,0,0,0-15.75-14.1l9.75-9c6.3,3.9,14.1,10.35,18,14.85l-8.55,8.25h12.9V76.67H928.9v6a185.42,185.42,0,0,0,5.4,22.2,195.21,195.21,0,0,0,15.15-22.2ZM892,83.27c5.7,8.25,12.15,18.9,14.4,26.4l-14.55,6.75c-2.1-7.2-8.1-18.6-13.65-27Z" transform="translate(-0.85 -34.82)"/><path class="cls-2" d="M1001.35,88.67c-3.15,3.6-6.3,7-9.6,10.2A79.45,79.45,0,0,0,982,83c12.6-10.5,26.55-28.65,33.75-47.85l13.35,8.4c-1,2.4-2.25,5.1-3.3,7.65,9.15,8.55,19.35,18.75,24.3,25.5l-8.55,14.4c-1.5-2.1-3.6-4.8-5.85-7.5V96.92h-34.35Zm48,24.3a170.62,170.62,0,0,1-22.8,40.8c3.75,3.75,7,7.2,9.75,10.5l-11.7,10.8c-6.6-8.7-20.4-22.35-30.9-31.2l10.95-9.6c3.15,2.55,6.75,5.55,10.2,8.7a135.93,135.93,0,0,0,14.1-21.45H989.5v-14.7h46.8l2.55-.75Zm-15.15-31.2c-4.65-5.55-10.2-11.55-15.75-17.25-3.75,6.15-7.5,11.85-11.55,17.25ZM1082.65,156a110.17,110.17,0,0,1-32,20.55A134.41,134.41,0,0,0,1039.45,165c10.65-4.2,23-12.15,29-18.6Zm35.1-9.6h-65V67.07h21.45c.6-3.3,1-6.75,1.5-10h-28V42h74.1V57h-27.15c-1.05,3.45-2,6.9-3,10h26.1Zm-16.5-66.15h-32.7v9.3h32.7Zm0,21.6h-32.7v9.75h32.7Zm0,21.75h-32.7v9.75h32.7Zm-.15,23.85c7.8,5.55,18.75,13.5,24.15,19.2l-13.8,9.9c-4.8-5.55-15.3-14.25-23.25-20.25Z" transform="translate(-0.85 -34.82)"/><path class="cls-2" d="M1257,157.22c4.5,0,5.4-2.85,6-20.55,3.6,3,11.4,6,16.2,7.2-1.8,23.7-6.6,30.15-20.55,30.15h-17.25c-16.8,0-20.7-5.55-20.7-22.5V115.07h-21.9c-3.3,26.7-11,49.05-45.45,62.1a56.69,56.69,0,0,0-11.1-15.75c29.85-9.75,35.55-26.55,37.8-46.35h-35.4V97.82h57.45V73.52h-25.8a108.65,108.65,0,0,1-11.55,20.4,118.08,118.08,0,0,0-15.75-7.8c9.75-12.3,16.8-32.55,20-47.85l18.3,3.6c-1.35,4.65-2.85,9.45-4.5,14.55h19.35V36.17h18.15V56.42h45.9v17.1h-45.9v24.3h57.6v17.25h-39.15v36.45c0,4.95.75,5.7,5.4,5.7Z" transform="translate(-0.85 -34.82)"/><path class="cls-5" d="M133.6,43.67V54.62h-58v5h45.9V69.92H13V59.57H57.55v-5H.85V43.67h56.7v-7.5h18v7.5Zm-58,117.45H132.7v12H1.9v-12H57.55v-4.8H16.45v-10.5h41.1v-4.35c-25.65.6-30.15,1.05-33.45,2.1-.6-2.4-2.4-7.95-3.6-11.1a34.84,34.84,0,0,0,7.8-1.95,85.47,85.47,0,0,0,10.2-4.35H18.1v-2.55H2.5V101.27H131.8v22.35H115V112.37H18.4v4.35h96v9.45H103.75a141.53,141.53,0,0,1,16.65,11.55l-9.75,8.1h8.85v10.5H75.55ZM116.8,74.27V96.92H18.4V74.27ZM99.25,83H34.75v5.25h64.5Zm-41.4,43.2c-3.45,2.1-6.75,4-10.05,5.7l41.1-.6c-2.85-1.65-5.7-3.15-8.1-4.5l.75-.6Zm17.7,19.65h33.6c-1.8-1.65-4.2-3.6-6.75-5.55L75.55,141Z" transform="translate(-0.85 -34.82)"/><path class="cls-5" d="M175,105c-4.35-4.5-14.1-11.25-21.6-15.3l9.75-12.45c7.65,3.6,17.4,9.45,22.35,14.1Zm2.55-38.55c-4.05-4.95-13.5-11.85-21-16.5l10.2-12c7.35,4.05,17.1,10.35,21.75,15.15Zm-20.7,99.15a457.69,457.69,0,0,0,18.6-48l14.1,9c-4.8,16-11,33.3-16.8,47.85Zm39.9-71.55c-1.2,7.35-3.45,15.15-6.15,20.1a50.41,50.41,0,0,0-7.35-5.25c2.7-4.8,4.05-11,4.95-17Zm18.6-6.15A47.78,47.78,0,0,0,214,83.27c-18.9,2.7-22.8,3.6-25.2,4.65a51.58,51.58,0,0,0-3.45-7.35c2.4-.3,4.35-2.25,7.05-5.1a76.6,76.6,0,0,0,7.5-9.6c-7.65.75-10.2,1.2-11.7,1.95a39.27,39.27,0,0,0-3.6-7c2-.3,3.45-1.8,5-4.05a74.68,74.68,0,0,0,9-19.2l9.6,3.45a77.54,77.54,0,0,1-9.3,16.35l6.75-.3a73.73,73.73,0,0,0,3.6-6.75l9.15,4.35a127.81,127.81,0,0,1-16,21.9l8.55-.9c-.6-1.35-1.35-2.7-1.95-3.9l7.5-2.7A101.65,101.65,0,0,1,223,84.77ZM288.7,144a40.1,40.1,0,0,1-.9,6.3c-2.4,12-5.1,18.6-9.15,21.9-3.9,2.85-7.95,3.6-13.95,3.9-4.95.15-13.95,0-23.25-.3a30.16,30.16,0,0,0-4.8-13c8.85.9,18.9,1,22.5,1,3.15,0,5-.15,6.45-1.2,1.65-1.2,3-3.6,4.35-7.8h-75.9a253.74,253.74,0,0,0,6.75-25.65h64.05v-4.8H196.3v-9.9h85.05v24.75H214.9l-1.2,4.8Zm-87.45-32.7a80.51,80.51,0,0,0-2.85-17.4l7.65-2a67,67,0,0,1,3.15,16.8Zm12.9-3.45c-.3-4.35-2.1-11-4.05-16.05l6.9-2.7a66.81,66.81,0,0,1,4.5,15.45ZM256.3,60.32H220.45V51h14.1a73,73,0,0,0-4.5-10.65l11.7-2.4a96.38,96.38,0,0,1,5.4,11.55l-6,1.5H256.3Zm-31.65,27.6H253.3v22.35H224.65Zm28.65-15.6H224.8v-8.1h28.5Zm0,11.55H224.8v-8.1h28.5ZM235,102.47h7.5v-6.6H235Zm32.4-9c-1.2,7.35-3.3,15-6.15,20a44.5,44.5,0,0,0-7.2-5.25c2.7-4.65,4.05-10.8,4.95-17Zm18.9-5.25c-.3-1.35-.9-3-1.5-4.8-19.05,2.55-22.95,3.45-25.35,4.65A32,32,0,0,0,256,80.72c2.4-.45,4.5-2.1,7.05-5.25a94.12,94.12,0,0,0,7.5-9.3c-7.5.75-10.2,1.2-11.85,1.8a48.19,48.19,0,0,0-3.3-7.2c1.8-.3,3.15-1.8,4.8-4.05,1.65-1.95,6.9-10.95,9.15-19.2l9.6,3.6a100.18,100.18,0,0,1-9.45,16.35l6.9-.3c1.2-2.25,2.4-4.5,3.45-6.75l9.15,4a136.33,136.33,0,0,1-15.9,22l8.4-.9c-.6-1.35-1.2-2.7-1.8-3.9l7.35-2.7c2.55,5.1,5.7,11.7,6.75,16Zm-14.55,24.6a93,93,0,0,0-3-18.75L276.4,92a82,82,0,0,1,3.3,18.15Zm16.05-23.7c2.4,5.85,4.8,13.5,5.4,18.15l-7.5,3.45a82.93,82.93,0,0,0-5.1-18.9Z" transform="translate(-0.85 -34.82)"/><path class="cls-5" d="M450.85,58.82h-26a96,96,0,0,1,10.35,9.45l-10.8,9.45h12.3v38H389.2v8.85h54.9s-.15,4.35-.45,6.45c-1.5,19.95-3.3,29.7-7.2,33.6-3.15,3.6-6.75,4.8-11.4,5.25a147.18,147.18,0,0,1-19.05.3c-.3-5.25-2.1-11.85-4.95-16.2a124.53,124.53,0,0,0,15.3.6c2.25,0,3.75-.15,5.1-1.35,1.5-1.5,2.7-5.55,3.6-13.8H389.2v37H371.65V147.17a135.57,135.57,0,0,1-45.6,28.65,68.39,68.39,0,0,0-11.25-14.1c15.6-4.65,31.8-12.9,43.5-22.35H326.05A327.45,327.45,0,0,0,331.6,101h40V92.42h-45.6V77.72h30.6c-3.3-4.2-9.15-9.75-13.8-13.8l5.7-5H339.7a117.67,117.67,0,0,1-15.3,19.35,113.26,113.26,0,0,0-12-12,85.89,85.89,0,0,0,21.75-31.5l15.75,4.5a52.79,52.79,0,0,1-2.7,6h33V59H358.75a93.41,93.41,0,0,1,10.2,9.9l-9.6,8.85h63.3c-3.3-4-9.75-9.45-14.55-13.35l6.45-5.55h-12.3a78.7,78.7,0,0,1-11.7,14.55A83.33,83.33,0,0,0,377.2,63c8.25-7.05,15-17.55,18.75-28.2l16.2,4c-.75,2.1-1.65,4.35-2.55,6.45h41.25Zm-79.2,56.85H347.2c-.45,3-.75,6-1.2,8.85h25.65Zm47.4-23.25H389.2V101h29.85Z" transform="translate(-0.85 -34.82)"/><path class="cls-5" d="M608.35,95.12v19.35H470.65V95.12Z" transform="translate(-0.85 -34.82)"/><path class="cls-5" d="M747.25,105.92v17.25H786.4v15.3H747.25v18.3h55.2v15.9H675.25v-15.9h53.4v-18.3H690v-15.3h38.7V105.92h-31.5V93.47a175.61,175.61,0,0,1-19.35,11.4,70.38,70.38,0,0,0-10.65-14.7c16.8-6.9,35.4-19.35,49.5-32.7H696.7V41h51.15c13,18.9,37.2,38,62.55,47.4A87.06,87.06,0,0,0,798,104.27a161.14,161.14,0,0,1-19.2-10.8v12.45Zm26.85-15.6a189.87,189.87,0,0,1-35.85-32.85C728.5,69,715.45,80.57,701.8,90.32Z" transform="translate(-0.85 -34.82)"/><path class="cls-5" d="M964.9,90.77a338.06,338.06,0,0,1-24.75,29c6.45,12.9,15.3,22.5,28.05,31.5a38.52,38.52,0,0,0-11,13.5c-12.6-9.6-21.45-19.8-28.35-32.4v23.85c0,9-1.8,13.65-7,16.5-5.1,3-12.75,3.75-23.85,3.75-.75-4.8-3.75-12.45-6-17.25,7.2.3,14.25.3,16.5.15,2.25,0,3.3-.75,3.3-3v-24.6c-10.5,10.2-21.3,20.55-30.6,28.95L873,148.07c-15.45,5-31.65,10.05-44.55,14.1l-3.75-16.95q7.88-2,18-4.95V104.12h-15V87.77h15V61.37H826.9V44.72h47.55V61.37H859.3v26.4h12.9v16.35H859.3v31.35l15.3-4.65,1.65,9.75c9.75-7.2,23.1-17.7,35.55-28V76.67H877.3V60.32h34.5v-24h17.1v24h20.4a111.67,111.67,0,0,0-15.75-14.1l9.75-9c6.3,3.9,14.1,10.35,18,14.85l-8.55,8.25h12.9V76.67H928.9v6a185.42,185.42,0,0,0,5.4,22.2,195.21,195.21,0,0,0,15.15-22.2ZM892,83.27c5.7,8.25,12.15,18.9,14.4,26.4l-14.55,6.75c-2.1-7.2-8.1-18.6-13.65-27Z" transform="translate(-0.85 -34.82)"/><path class="cls-5" d="M1001.35,88.67c-3.15,3.6-6.3,7-9.6,10.2A79.45,79.45,0,0,0,982,83c12.6-10.5,26.55-28.65,33.75-47.85l13.35,8.4c-1,2.4-2.25,5.1-3.3,7.65,9.15,8.55,19.35,18.75,24.3,25.5l-8.55,14.4c-1.5-2.1-3.6-4.8-5.85-7.5V96.92h-34.35Zm48,24.3a170.62,170.62,0,0,1-22.8,40.8c3.75,3.75,7,7.2,9.75,10.5l-11.7,10.8c-6.6-8.7-20.4-22.35-30.9-31.2l10.95-9.6c3.15,2.55,6.75,5.55,10.2,8.7a135.93,135.93,0,0,0,14.1-21.45H989.5v-14.7h46.8l2.55-.75Zm-15.15-31.2c-4.65-5.55-10.2-11.55-15.75-17.25-3.75,6.15-7.5,11.85-11.55,17.25ZM1082.65,156a110.17,110.17,0,0,1-32,20.55A134.41,134.41,0,0,0,1039.45,165c10.65-4.2,23-12.15,29-18.6Zm35.1-9.6h-65V67.07h21.45c.6-3.3,1-6.75,1.5-10h-28V42h74.1V57h-27.15c-1.05,3.45-2,6.9-3,10h26.1Zm-16.5-66.15h-32.7v9.3h32.7Zm0,21.6h-32.7v9.75h32.7Zm0,21.75h-32.7v9.75h32.7Zm-.15,23.85c7.8,5.55,18.75,13.5,24.15,19.2l-13.8,9.9c-4.8-5.55-15.3-14.25-23.25-20.25Z" transform="translate(-0.85 -34.82)"/><path class="cls-5" d="M1257,157.22c4.5,0,5.4-2.85,6-20.55,3.6,3,11.4,6,16.2,7.2-1.8,23.7-6.6,30.15-20.55,30.15h-17.25c-16.8,0-20.7-5.55-20.7-22.5V115.07h-21.9c-3.3,26.7-11,49.05-45.45,62.1a56.69,56.69,0,0,0-11.1-15.75c29.85-9.75,35.55-26.55,37.8-46.35h-35.4V97.82h57.45V73.52h-25.8a108.65,108.65,0,0,1-11.55,20.4,118.08,118.08,0,0,0-15.75-7.8c9.75-12.3,16.8-32.55,20-47.85l18.3,3.6c-1.35,4.65-2.85,9.45-4.5,14.55h19.35V36.17h18.15V56.42h45.9v17.1h-45.9v24.3h57.6v17.25h-39.15v36.45c0,4.95.75,5.7,5.4,5.7Z" transform="translate(-0.85 -34.82)"/></g></g></g></svg>